ply
format ascii 1.0
comment 3D Face Reconstruction
element vertex 734
property float x
property float y
property float z
property uchar red
property uchar green
property uchar blue
element face 1408
property list uchar int vertex_indices
end_header
-16.810333 94.464066 -8.640179 199 165 142
-10.086212 94.464066 -7.787491 208 171 149
-3.362061 94.464066 -7.386717 202 166 139
3.362061 94.464066 -7.386717 192 155 127
10.086212 94.464066 -7.787491 185 144 118
16.810333 94.464066 -8.640179 190 148 120
-30.258606 88.949783 -7.761030 221 185 160
-23.534485 88.949783 -6.242936 221 184 158
-16.810333 88.949783 -5.221843 215 182 155
-10.086212 88.949783 -4.584102 210 169 145
-3.362061 88.949783 -4.276311 207 165 137
3.362061 88.949783 -4.276311 203 163 134
10.086212 88.949783 -4.584102 200 158 131
16.810333 88.949783 -5.221843 189 146 116
23.534485 88.949783 -6.242936 197 154 127
30.258606 88.949783 -7.761030 195 149 119
-43.706909 83.435493 -8.843562 194 147 111
-36.982758 83.435493 -6.427699 208 163 132
-30.258606 83.435493 -4.745785 217 178 151
-23.534485 83.435493 -3.540075 216 181 152
-16.810333 83.435493 -2.697863 213 176 150
-10.086212 83.435493 -2.161189 212 173 148
-3.362061 83.435493 -1.899544 205 167 138
3.362061 83.435493 -1.899544 203 160 130
10.086212 83.435493 -2.161189 203 160 130
16.810333 83.435493 -2.697863 195 152 122
23.534485 83.435493 -3.540075 199 155 124
30.258606 83.435493 -4.745785 194 150 118
36.982758 83.435493 -6.427699 187 142 111
43.706909 83.435493 -8.843562 181 137 106
-50.431030 77.921211 -8.441155 178 133 100
-43.706909 77.921211 -5.760481 191 144 108
-36.982758 77.921211 -3.860627 200 155 120
-30.258606 77.921211 -2.453352 205 160 129
-23.534485 77.921211 -1.413086 207 164 134
-16.810333 77.921211 -0.673738 212 168 140
-10.086212 77.921211 -0.197855 208 167 137
-3.362061 77.921211 0.035389 208 164 136
3.362061 77.921211 0.035389 204 157 126
10.086212 77.921211 -0.197855 206 160 130
16.810333 77.921211 -0.673738 202 158 128
23.534485 77.921211 -1.413086 192 146 112
30.258606 77.921211 -2.453352 191 147 114
36.982758 77.921211 -3.860627 186 140 110
43.706909 77.921211 -5.760481 185 140 112
50.431030 77.921211 -8.441155 175 133 105
-57.155182 72.406921 -8.741952 123 103 86
-50.431030 72.406921 -5.651255 183 138 104
-43.706909 72.406921 -3.475426 185 140 104
-36.982758 72.406921 -1.841442 188 142 108
-30.258606 72.406921 -0.596340 200 150 119
-23.534485 72.406921 0.339102 204 157 127
-16.810333 72.406921 1.010557 202 155 123
-10.086212 72.406921 1.445343 207 162 133
-3.362061 72.406921 1.659136 208 165 135
3.362061 72.406921 1.659136 206 161 132
10.086212 72.406921 1.445343 205 159 130
16.810333 72.406921 1.010557 202 156 123
23.534485 72.406921 0.339102 198 152 119
30.258606 72.406921 -0.596340 188 142 109
36.982758 72.406921 -1.841442 186 139 109
43.706909 72.406921 -3.475426 182 137 110
50.431030 72.406921 -5.651255 174 134 105
57.155182 72.406921 -8.741952 174 137 107
-63.879303 66.892639 -9.822846 31 53 53
-57.155182 66.892639 -6.084712 131 113 92
-50.431030 66.892639 -3.550246 180 137 101
-43.706909 66.892639 -1.651068 180 136 99
-36.982758 66.892639 -0.183275 187 141 105
-30.258606 66.892639 0.953419 209 164 133
-23.534485 66.892639 1.815971 209 167 134
-16.810333 66.892639 2.439054 212 169 140
-10.086212 66.892639 2.844116 211 166 137
-3.362061 66.892639 3.043730 209 163 135
3.362061 66.892639 3.043730 212 168 138
10.086212 66.892639 2.844116 209 165 137
16.810333 66.892639 2.439054 212 168 137
23.534485 66.892639 1.815971 210 163 131
30.258606 66.892639 0.953419 195 149 116
36.982758 66.892639 -0.183275 189 142 113
43.706909 66.892639 -1.651068 181 137 109
50.431030 66.892639 -3.550246 174 134 104
57.155182 66.892639 -6.084712 171 133 106
63.879303 66.892639 -9.822846 165 130 104
-63.879303 61.378349 -7.125337 31 44 48
-57.155182 61.378349 -4.092491 145 119 103
-50.431030 61.378349 -1.867331 179 137 102
-43.706909 61.378349 -0.145914 180 135 101
-36.982758 61.378349 1.207418 199 152 117
-30.258606 61.378349 2.266403 213 168 133
-23.534485 61.378349 3.075382 222 186 156
-16.810333 61.378349 3.662333 223 188 160
-10.086212 61.378349 4.044968 219 180 148
-3.362061 61.378349 4.233818 223 179 152
3.362061 61.378349 4.233818 223 180 151
10.086212 61.378349 4.044968 224 183 151
16.810333 61.378349 3.662333 220 177 143
23.534485 61.378349 3.075382 211 165 131
30.258606 61.378349 2.266403 201 155 121
36.982758 61.378349 1.207418 194 150 118
43.706909 61.378349 -0.145914 182 139 108
50.431030 61.378349 -1.867331 174 134 105
57.155182 61.378349 -4.092491 173 137 110
63.879303 61.378349 -7.125337 168 137 111
-70.603455 55.864067 -8.980050 92 109 120
-63.879303 55.864067 -5.161079 56 59 68
-57.155182 55.864067 -2.507213 149 123 104
-50.431030 55.864067 -0.481853 175 134 99
-43.706909 55.864067 1.115440 190 144 108
-36.982758 55.864067 2.385357 201 157 118
-30.258606 55.864067 3.386194 208 163 127
-23.534485 55.864067 4.154388 217 169 135
-16.810333 55.864067 4.713518 222 182 153
-10.086212 55.864067 5.078758 220 179 148
-3.362061 55.864067 5.259232 223 182 153
3.362061 55.864067 5.259232 223 178 148
10.086212 55.864067 5.078758 221 177 144
16.810333 55.864067 4.713518 213 166 135
23.534485 55.864067 4.154388 207 160 126
30.258606 55.864067 3.386194 202 155 122
36.982758 55.864067 2.385357 192 146 114
43.706909 55.864067 1.115440 182 137 105
50.431030 55.864067 -0.481853 180 140 110
57.155182 55.864067 -2.507213 172 136 109
63.879303 55.864067 -5.161079 164 133 107
70.603455 55.864067 -8.980050 145 121 98
-70.603455 50.349777 -6.906589 147 168 179
-63.879303 50.349777 -3.627034 67 63 70
-57.155182 50.349777 -1.213444 168 132 106
-50.431030 50.349777 0.672379 186 145 110
-43.706909 50.349777 2.178669 201 159 124
-36.982758 50.349777 3.385637 202 158 120
-30.258606 50.349777 4.341778 204 158 118
-23.534485 50.349777 5.078243 202 156 120
-16.810333 50.349777 5.615557 200 155 120
-10.086212 50.349777 5.967083 210 162 132
-3.362061 50.349777 6.140928 213 163 133
3.362061 50.349777 6.140928 208 162 130
10.086212 50.349777 5.967083 210 163 133
16.810333 50.349777 5.615557 198 153 118
23.534485 50.349777 5.078243 199 156 121
30.258606 50.349777 4.341778 197 155 119
36.982758 50.349777 3.385637 192 155 124
43.706909 50.349777 2.178669 193 157 129
50.431030 50.349777 0.672379 189 153 124
57.155182 50.349777 -1.213444 178 145 116
63.879303 50.349777 -3.627034 167 138 112
70.603455 50.349777 -6.906589 168 139 117
-77.327576 44.835495 -9.746067 193 221 233
-70.603455 44.835495 -5.353285 193 219 230
-63.879303 44.835495 -2.396105 66 60 66
-57.155182 44.835495 -0.147852 174 141 117
-50.431030 44.835495 1.635967 195 156 121
-43.706909 44.835495 3.073286 193 157 120
-36.982758 44.835495 4.231358 184 147 118
-30.258606 44.835495 5.152447 183 148 119
-23.534485 44.835495 5.864201 182 143 116
-16.810333 44.835495 6.384644 186 143 115
-10.086212 44.835495 6.725506 195 150 120
-3.362061 44.835495 6.894144 195 149 116
3.362061 44.835495 6.894144 193 149 115
10.086212 44.835495 6.725506 188 144 115
16.810333 44.835495 6.384644 177 141 113
23.534485 44.835495 5.864201 173 138 112
30.258606 44.835495 5.152447 148 123 107
36.982758 44.835495 4.231358 132 116 101
43.706909 44.835495 3.073286 131 115 99
50.431030 44.835495 1.635967 129 111 96
57.155182 44.835495 -0.147852 147 127 105
63.879303 44.835495 -2.396105 171 142 119
70.603455 44.835495 -5.353285 166 136 115
77.327576 44.835495 -9.746067 161 136 114
-77.327576 39.321213 -7.993946 195 223 234
-70.603455 39.321213 -4.144559 196 223 235
-63.879303 39.321213 -1.400928 75 75 78
-57.155182 39.321213 0.727993 146 124 116
-50.431030 39.321213 2.433392 108 95 88
-43.706909 39.321213 3.812292 105 95 85
-36.982758 39.321213 4.924675 90 80 70
-30.258606 39.321213 5.815210 75 66 55
-23.534485 39.321213 6.512489 97 81 68
-16.810333 39.321213 7.027149 135 106 87
-10.086212 39.321213 7.364037 162 125 101
-3.362061 39.321213 7.529928 173 133 105
3.362061 39.321213 7.529928 173 129 104
10.086212 39.321213 7.364037 139 107 86
16.810333 39.321213 7.027149 99 79 65
23.534485 39.321213 6.512489 60 47 38
30.258606 39.321213 5.815210 61 56 47
36.982758 39.321213 4.924675 54 51 44
43.706909 39.321213 3.812292 59 52 45
50.431030 39.321213 2.433392 68 61 53
57.155182 39.321213 0.727993 90 73 60
63.879303 39.321213 -1.400928 118 102 82
70.603455 39.321213 -4.144559 166 136 118
77.327576 39.321213 -7.993946 168 141 122
-77.327576 33.806915 -6.718030 195 223 236
-70.603455 33.806915 -3.196016 199 225 237
-63.879303 33.806915 -0.601574 131 131 133
-57.155182 33.806915 1.435701 87 80 71
-50.431030 33.806915 3.063086 100 86 77
-43.706909 33.806915 4.347027 104 89 79
-36.982758 33.806915 5.355309 102 87 76
-30.258606 33.806915 6.194847 80 67 53
-23.534485 33.806915 6.925867 88 69 53
-16.810333 33.806915 7.503929 121 88 76
-10.086212 33.806915 7.878000 138 104 83
-3.362061 33.806915 8.054314 158 120 99
3.362061 33.806915 8.054314 142 107 84
10.086212 33.806915 7.878000 133 104 85
16.810333 33.806915 7.503929 99 76 63
23.534485 33.806915 6.925867 95 72 63
30.258606 33.806915 6.194847 103 83 70
36.982758 33.806915 5.355309 123 100 82
43.706909 33.806915 4.347027 138 113 94
50.431030 33.806915 3.063086 138 114 93
57.155182 33.806915 1.435701 136 114 93
63.879303 33.806915 -0.601574 129 108 89
70.603455 33.806915 -3.196016 159 133 114
77.327576 33.806915 -6.718030 167 140 121
-84.051727 28.292633 -10.966284 195 222 235
-77.327576 28.292633 -5.768835 198 224 237
-70.603455 28.292633 -2.460176 196 223 235
-63.879303 28.292633 0.026299 177 198 208
-57.155182 28.292633 1.979321 122 107 93
-50.431030 28.292633 3.469658 178 159 145
-43.706909 28.292633 4.472645 186 168 153
-36.982758 28.292633 5.115349 182 167 150
-30.258606 28.292633 5.802799 145 127 117
-23.534485 28.292633 6.747677 132 113 101
-16.810333 28.292633 7.657650 120 83 74
-10.086212 28.292633 8.228359 133 99 83
-3.362061 28.292633 8.465178 162 126 101
3.362061 28.292633 8.465178 154 120 93
10.086212 28.292633 8.228359 133 102 84
16.810333 28.292633 7.657650 148 130 117
23.534485 28.292633 6.747677 191 187 175
30.258606 28.292633 5.802799 140 133 121
36.982758 28.292633 5.115349 134 125 109
43.706909 28.292633 4.472645 140 136 113
50.431030 28.292633 3.469658 138 118 101
57.155182 28.292633 1.979321 137 114 100
63.879303 28.292633 0.026299 135 112 96
70.603455 28.292633 -2.460176 151 125 109
77.327576 28.292633 -5.768835 167 138 121
84.051727 28.292633 -10.966284 45 40 43
-84.051727 22.778351 -9.820137 195 223 236
-77.327576 22.778351 -5.074391 143 167 181
-70.603455 22.778351 -1.907976 102 119 130
-63.879303 22.778351 0.499184 186 211 215
-57.155182 22.778351 2.364456 141 128 114
-50.431030 22.778351 3.629152 128 108 94
-43.706909 22.778351 4.092058 125 103 90
-36.982758 22.778351 4.008657 140 118 106
-30.258606 22.778351 4.403494 126 108 95
-23.534485 22.778351 5.806356 152 152 122
-16.810333 22.778351 7.413628 151 141 118
-10.086212 22.778351 8.397968 144 109 97
-3.362061 22.778351 8.763361 203 178 159
3.362061 22.778351 8.763361 178 141 119
10.086212 22.778351 8.397968 133 100 81
16.810333 22.778351 7.413628 128 106 89
23.534485 22.778351 5.806356 117 99 83
30.258606 22.778351 4.403494 120 121 103
36.982758 22.778351 4.008657 120 117 98
43.706909 22.778351 4.092058 132 132 108
50.431030 22.778351 3.629152 130 114 98
57.155182 22.778351 2.364456 131 112 97
63.879303 22.778351 0.499184 133 110 94
70.603455 22.778351 -1.907976 146 127 114
77.327576 22.778351 -5.074391 99 75 71
84.051727 22.778351 -9.820137 182 184 180
-84.051727 17.264069 -9.083147 198 225 237
-77.327576 17.264069 -4.595142 197 224 236
-70.603455 17.264069 -1.520617 105 121 138
-63.879303 17.264069 0.833763 192 215 224
-57.155182 17.264069 2.641930 160 134 117
-50.431030 17.264069 3.764957 101 82 65
-43.706909 17.264069 3.892292 112 95 82
-36.982758 17.264069 3.358686 106 88 77
-30.258606 17.264069 3.571663 115 97 86
-23.534485 17.264069 5.257093 152 150 120
-16.810333 17.264069 7.295404 157 137 119
-10.086212 17.264069 8.536039 159 123 109
-3.362061 17.264069 8.981646 236 219 206
3.362061 17.264069 8.981646 171 139 120
10.086212 17.264069 8.536039 153 121 106
16.810333 17.264069 7.295404 130 108 90
23.534485 17.264069 5.257093 116 95 82
30.258606 17.264069 3.571663 119 110 95
36.982758 17.264069 3.358686 106 95 83
43.706909 17.264069 3.892292 119 106 93
50.431030 17.264069 3.764957 118 101 87
57.155182 17.264069 2.641930 128 108 91
63.879303 17.264069 0.833763 151 127 106
70.603455 17.264069 -1.520617 155 132 116
77.327576 17.264069 -4.595142 159 132 113
84.051727 17.264069 -9.083147 106 89 80
-84.051727 11.749786 -8.658356 197 224 235
-77.327576 11.749786 -4.308514 199 225 238
-70.603455 11.749786 -1.286278 119 136 158
-63.879303 11.749786 1.042372 192 213 225
-57.155182 11.749786 2.857664 188 156 124
-50.431030 11.749786 4.087868 128 109 96
-43.706909 11.749786 4.525871 123 109 94
-36.982758 11.749786 4.424088 127 109 95
-30.258606 11.749786 4.805418 127 104 92
-23.534485 11.749786 6.199322 132 105 96
-16.810333 11.749786 7.803595 148 121 106
-10.086212 11.749786 8.792086 136 95 79
-3.362061 11.749786 9.163979 204 163 143
3.362061 11.749786 9.163979 174 130 110
10.086212 11.749786 8.792086 161 133 113
16.810333 11.749786 7.803595 148 118 99
23.534485 11.749786 6.199322 124 103 87
30.258606 11.749786 4.805418 122 107 91
36.982758 11.749786 4.424088 121 105 92
43.706909 11.749786 4.525871 126 107 96
50.431030 11.749786 4.087868 128 106 91
57.155182 11.749786 2.857664 152 126 108
63.879303 11.749786 1.042372 158 131 107
70.603455 11.749786 -1.286278 152 125 106
77.327576 11.749786 -4.308514 162 135 114
84.051727 11.749786 -8.658356 113 96 84
-84.051727 6.235489 -8.503938 197 223 236
-77.327576 6.235489 -4.202544 198 225 236
-70.603455 6.235489 -1.198914 181 200 214
-63.879303 6.235489 1.124409 195 213 224
-57.155182 6.235489 2.974447 197 160 131
-50.431030 6.235489 4.394060 191 156 123
-43.706909 6.235489 5.346149 154 131 107
-36.982758 6.235489 5.951422 145 125 103
-30.258606 6.235489 6.612055 152 129 108
-23.534485 6.235489 7.543201 165 136 115
-16.810333 6.235489 8.464352 193 150 124
-10.086212 6.235489 9.080427 134 90 73
-3.362061 6.235489 9.367599 248 217 196
3.362061 6.235489 9.367599 206 160 127
10.086212 6.235489 9.080427 142 115 98
16.810333 6.235489 8.464352 190 147 121
23.534485 6.235489 7.543201 165 131 111
30.258606 6.235489 6.612055 147 119 104
36.982758 6.235489 5.951422 144 117 105
43.706909 6.235489 5.346149 149 119 106
50.431030 6.235489 4.394060 158 128 111
57.155182 6.235489 2.974447 166 136 112
63.879303 6.235489 1.124409 182 147 121
70.603455 6.235489 -1.198914 151 124 101
77.327576 6.235489 -4.202544 164 137 115
84.051727 6.235489 -8.503938 124 104 88
-84.051727 0.721207 -8.606602 197 223 236
-77.327576 0.721207 -4.273077 199 225 237
-70.603455 0.721207 -1.256620 200 223 236
-63.879303 0.721207 1.076303 196 216 224
-57.155182 0.721207 2.950993 194 157 122
-50.431030 0.721207 4.467680 206 166 132
-43.706909 0.721207 5.672409 208 172 144
-36.982758 0.721207 6.622910 197 161 137
-30.258606 0.721207 7.423943 197 161 138
-23.534485 0.721207 8.153240 205 163 135
-16.810333 0.721207 8.823374 203 161 134
-10.086212 0.721207 9.427441 199 151 127
-3.362061 0.721207 9.842350 243 209 186
3.362061 0.721207 9.842350 217 169 135
10.086212 0.721207 9.427441 125 97 84
16.810333 0.721207 8.823374 192 154 127
23.534485 0.721207 8.153240 195 158 133
30.258606 0.721207 7.423943 191 157 130
36.982758 0.721207 6.622910 181 145 123
43.706909 0.721207 5.672409 178 141 118
50.431030 0.721207 4.467680 180 142 120
57.155182 0.721207 2.950993 187 146 122
63.879303 0.721207 1.076303 178 141 115
70.603455 0.721207 -1.256620 157 130 108
77.327576 0.721207 -4.273077 162 136 112
84.051727 0.721207 -8.606602 132 108 93
-84.051727 -4.793076 -8.975081 196 224 236
-77.327576 -4.793076 -4.522876 200 224 238
-70.603455 -4.793076 -1.460855 199 225 237
-63.879303 -4.793076 0.897818 197 219 224
-57.155182 -4.793076 2.793060 178 148 123
-50.431030 -4.793076 4.341446 198 159 128
-43.706909 -4.793076 5.608959 208 165 134
-36.982758 -4.793076 6.641268 211 174 149
-30.258606 -4.793076 7.486389 218 188 164
-23.534485 -4.793076 8.235365 206 168 140
-16.810333 -4.793076 9.085751 194 158 132
-10.086212 -4.793076 10.186470 227 181 153
-3.362061 -4.793076 11.130655 248 214 194
3.362061 -4.793076 11.130655 223 177 146
10.086212 -4.793076 10.186470 197 156 128
16.810333 -4.793076 9.085751 183 148 126
23.534485 -4.793076 8.235365 197 161 136
30.258606 -4.793076 7.486389 205 170 142
36.982758 -4.793076 6.641268 206 171 144
43.706909 -4.793076 5.608959 200 160 134
50.431030 -4.793076 4.341446 190 150 124
57.155182 -4.793076 2.793060 180 140 115
63.879303 -4.793076 0.897818 175 145 121
70.603455 -4.793076 -1.460855 159 133 110
77.327576 -4.793076 -4.522876 161 135 113
84.051727 -4.793076 -8.975081 124 103 89
-84.051727 -10.307358 -9.644316 200 226 239
-77.327576 -10.307358 -4.962202 199 225 238
-70.603455 -10.307358 -1.817028 199 226 238
-63.879303 -10.307358 0.586868 166 169 177
-57.155182 -10.307358 2.511295 163 136 121
-50.431030 -10.307358 4.081682 193 156 129
-43.706909 -10.307358 5.369434 206 166 139
-36.982758 -10.307358 6.422058 212 172 146
-30.258606 -10.307358 7.297136 208 169 143
-23.534485 -10.307358 8.170605 194 157 135
-16.810333 -10.307358 9.493340 175 129 107
-10.086212 -10.307358 11.610313 230 184 155
-3.362061 -10.307358 13.578497 242 207 184
3.362061 -10.307358 13.578497 225 179 148
10.086212 -10.307358 11.610313 213 165 134
16.810333 -10.307358 9.493340 195 163 144
23.534485 -10.307358 8.170605 185 148 125
30.258606 -10.307358 7.297136 201 163 136
36.982758 -10.307358 6.422058 205 168 140
43.706909 -10.307358 5.369434 198 156 131
50.431030 -10.307358 4.081682 196 157 132
57.155182 -10.307358 2.511295 177 143 117
63.879303 -10.307358 0.586868 164 137 111
70.603455 -10.307358 -1.817028 155 129 102
77.327576 -10.307358 -4.962202 158 131 104
84.051727 -10.307358 -9.644316 125 106 90
-84.051727 -15.821655 -10.696102 203 225 238
-77.327576 -15.821655 -5.611143 201 226 237
-70.603455 -15.821655 -2.335437 199 226 238
-63.879303 -15.821655 0.137163 194 219 226
-57.155182 -15.821655 2.104628 241 233 222
-50.431030 -15.821655 3.704536 197 169 153
-43.706909 -15.821655 5.013809 199 161 143
-36.982758 -15.821655 6.084373 199 166 146
-30.258606 -15.821655 6.992846 224 198 183
-23.534485 -15.821655 8.016703 202 165 147
-16.810333 -15.821655 9.891218 210 164 133
-10.086212 -15.821655 13.179867 217 166 134
-3.362061 -15.821655 16.324640 217 167 137
3.362061 -15.821655 16.324640 211 163 129
10.086212 -15.821655 13.179867 204 156 125
16.810333 -15.821655 9.891218 214 170 142
23.534485 -15.821655 8.016703 204 176 161
30.258606 -15.821655 6.992846 219 192 176
36.982758 -15.821655 6.084373 195 162 139
43.706909 -15.821655 5.013809 193 155 136
50.431030 -15.821655 3.704536 187 152 131
57.155182 -15.821655 2.104628 189 171 151
63.879303 -15.821655 0.137163 157 124 97
70.603455 -15.821655 -2.335437 156 125 100
77.327576 -15.821655 -5.611143 157 130 105
84.051727 -15.821655 -10.696102 108 93 72
-84.051727 -21.335938 -12.338470 199 224 237
-77.327576 -21.335938 -6.505031 199 226 237
-70.603455 -21.335938 -3.032885 202 227 238
-63.879303 -21.335938 -0.461887 196 223 233
-57.155182 -21.335938 1.565796 159 127 106
-50.431030 -21.335938 3.206327 179 139 114
-43.706909 -21.335938 4.544559 187 136 114
-36.982758 -21.335938 5.637194 191 146 119
-30.258606 -21.335938 6.571276 191 143 116
-23.534485 -21.335938 7.672060 196 144 118
-16.810333 -21.335938 9.806301 188 137 107
-10.086212 -21.335938 13.638380 184 134 109
-3.362061 -21.335938 17.327059 188 143 115
3.362061 -21.335938 17.327059 180 129 107
10.086212 -21.335938 13.638380 177 132 104
16.810333 -21.335938 9.806301 185 141 110
23.534485 -21.335938 7.672060 169 122 91
30.258606 -21.335938 6.571276 190 141 116
36.982758 -21.335938 5.637194 195 146 127
43.706909 -21.335938 4.544559 190 143 116
50.431030 -21.335938 3.206327 188 144 119
57.155182 -21.335938 1.565796 178 140 117
63.879303 -21.335938 -0.461887 160 125 99
70.603455 -21.335938 -3.032885 152 120 92
77.327576 -21.335938 -6.505031 143 120 95
84.051727 -21.335938 -12.338470 116 104 85
-84.051727 -26.850220 -15.548896 199 226 237
-77.327576 -26.850220 -7.707259 200 226 238
-70.603455 -26.850220 -3.935912 199 225 237
-63.879303 -26.850220 -1.226236 205 228 238
-57.155182 -26.850220 0.883537 153 128 110
-50.431030 -26.850220 2.578432 178 133 108
-43.706909 -26.850220 3.954845 186 138 108
-36.982758 -26.850220 5.074314 189 136 109
-30.258606 -26.850220 6.018755 189 136 109
-23.534485 -26.850220 7.068800 203 152 122
-16.810333 -26.850220 8.961674 177 129 105
-10.086212 -26.850220 12.262039 110 74 56
-3.362061 -26.850220 15.412535 156 113 88
3.362061 -26.850220 15.412535 152 110 83
10.086212 -26.850220 12.262039 134 97 73
16.810333 -26.850220 8.961674 126 95 69
23.534485 -26.850220 7.068800 169 126 98
30.258606 -26.850220 6.018755 194 144 113
36.982758 -26.850220 5.074314 188 142 109
43.706909 -26.850220 3.954845 187 139 109
50.431030 -26.850220 2.578432 183 136 109
57.155182 -26.850220 0.883537 169 129 104
63.879303 -26.850220 -1.226236 160 127 102
70.603455 -26.850220 -3.935912 153 122 95
77.327576 -26.850220 -7.707259 133 114 92
84.051727 -26.850220 -15.548896 171 187 190
-84.051727 -32.364502 -18.037046 199 225 236
-77.327576 -32.364502 -9.344842 199 225 237
-70.603455 -32.364502 -5.087457 199 225 237
-63.879303 -32.364502 -2.179771 205 227 240
-57.155182 -32.364502 0.041624 141 120 110
-50.431030 -32.364502 1.808559 155 118 95
-43.706909 -32.364502 3.234804 177 131 105
-36.982758 -32.364502 4.388433 178 133 106
-30.258606 -32.364502 5.338276 189 140 114
-23.534485 -32.364502 6.267336 197 147 119
-16.810333 -32.364502 7.631182 166 129 106
-10.086212 -32.364502 9.776680 70 41 26
-3.362061 -32.364502 11.759916 82 55 48
3.362061 -32.364502 11.759916 98 68 55
10.086212 -32.364502 9.776680 105 79 62
16.810333 -32.364502 7.631182 141 108 88
23.534485 -32.364502 6.267336 171 131 105
30.258606 -32.364502 5.338276 195 146 114
36.982758 -32.364502 4.388433 187 141 108
43.706909 -32.364502 3.234804 173 127 102
50.431030 -32.364502 1.808559 172 128 104
57.155182 -32.364502 0.041624 161 124 96
63.879303 -32.364502 -2.179771 154 122 94
70.603455 -32.364502 -5.087457 147 122 98
77.327576 -32.364502 -9.344842 124 109 86
84.051727 -32.364502 -18.037046 186 208 216
-77.327576 -37.878784 -11.749191 200 226 237
-70.603455 -37.878784 -6.562097 200 226 237
-63.879303 -37.878784 -3.359322 200 226 237
-57.155182 -37.878784 -0.983561 131 125 123
-50.431030 -37.878784 0.879610 149 115 97
-43.706909 -37.878784 2.372158 159 121 100
-36.982758 -37.878784 3.575691 156 114 89
-30.258606 -37.878784 4.556870 168 126 100
-23.534485 -37.878784 5.424984 135 110 86
-16.810333 -37.878784 6.395855 110 86 68
-10.086212 -37.878784 7.613243 76 46 35
-3.362061 -37.878784 8.634003 73 52 40
3.362061 -37.878784 8.634003 84 59 49
10.086212 -37.878784 7.613243 76 57 45
16.810333 -37.878784 6.395855 98 77 63
23.534485 -37.878784 5.424984 122 103 82
30.258606 -37.878784 4.556870 151 120 97
36.982758 -37.878784 3.575691 177 135 108
43.706909 -37.878784 2.372158 171 126 98
50.431030 -37.878784 0.879610 170 127 101
57.155182 -37.878784 -0.983561 159 125 97
63.879303 -37.878784 -3.359322 146 120 91
70.603455 -37.878784 -6.562097 140 118 93
77.327576 -37.878784 -11.749191 129 114 94
-77.327576 -43.393082 -18.037046 204 227 239
-70.603455 -43.393082 -8.508697 203 227 239
-63.879303 -43.393082 -4.825328 201 226 238
-57.155182 -43.393082 -2.227627 192 214 227
-50.431030 -43.393082 -0.232571 132 102 87
-43.706909 -43.393082 1.352961 142 106 87
-36.982758 -43.393082 2.644640 155 117 92
-30.258606 -43.393082 3.748274 113 96 73
-23.534485 -43.393082 4.788126 79 62 43
-16.810333 -43.393082 5.880272 126 98 82
-10.086212 -43.393082 6.993296 133 101 87
-3.362061 -43.393082 7.777464 121 89 78
3.362061 -43.393082 7.777464 127 93 83
10.086212 -43.393082 6.993296 105 78 68
16.810333 -43.393082 5.880272 94 72 58
23.534485 -43.393082 4.788126 91 69 55
30.258606 -43.393082 3.748274 94 75 59
36.982758 -43.393082 2.644640 104 88 69
43.706909 -43.393082 1.352961 167 129 99
50.431030 -43.393082 -0.232571 168 128 101
57.155182 -43.393082 -2.227627 151 121 92
63.879303 -43.393082 -4.825328 138 114 88
70.603455 -43.393082 -8.508697 129 111 89
77.327576 -43.393082 -18.037046 128 116 104
-77.327576 -48.907364 -18.037046 205 227 240
-70.603455 -48.907364 -11.326151 204 227 240
-63.879303 -48.907364 -6.688487 203 227 239
-57.155182 -48.907364 -3.748368 196 223 235
-50.431030 -48.907364 -1.567530 118 95 84
-43.706909 -48.907364 0.142336 124 97 81
-36.982758 -48.907364 1.549850 147 114 92
-30.258606 -48.907364 2.824690 98 76 55
-23.534485 -48.907364 4.160400 89 65 49
-16.810333 -48.907364 5.671009 93 62 49
-10.086212 -48.907364 7.188055 111 70 57
-3.362061 -48.907364 8.199862 126 87 78
3.362061 -48.907364 8.199862 127 87 75
10.086212 -48.907364 7.188055 122 81 68
16.810333 -48.907364 5.671009 115 82 67
23.534485 -48.907364 4.160400 102 84 69
30.258606 -48.907364 2.824690 92 71 53
36.982758 -48.907364 1.549850 106 84 69
43.706909 -48.907364 0.142336 151 120 86
50.431030 -48.907364 -1.567530 160 127 95
57.155182 -48.907364 -3.748368 140 112 81
63.879303 -48.907364 -6.688487 119 93 71
70.603455 -48.907364 -11.326151 128 106 86
77.327576 -48.907364 -18.037046 108 99 90
-70.603455 -54.421646 -18.037046 202 225 238
-63.879303 -54.421646 -9.196859 199 225 236
-57.155182 -54.421646 -5.649177 201 228 236
-50.431030 -54.421646 -3.192935 95 82 75
-43.706909 -54.421646 -1.331961 100 77 61
-36.982758 -54.421646 0.149685 149 120 97
-30.258606 -54.421646 1.421127 118 92 70
-23.534485 -54.421646 2.651487 103 76 54
-16.810333 -54.421646 3.937477 115 85 67
-10.086212 -54.421646 5.156713 122 86 67
-3.362061 -54.421646 5.942192 133 86 76
3.362061 -54.421646 5.942192 132 83 73
10.086212 -54.421646 5.156713 144 100 88
16.810333 -54.421646 3.937477 141 102 84
23.534485 -54.421646 2.651487 140 104 81
30.258606 -54.421646 1.421127 141 108 85
36.982758 -54.421646 0.149685 127 99 77
43.706909 -54.421646 -1.331961 153 122 91
50.431030 -54.421646 -3.192935 146 116 80
57.155182 -54.421646 -5.649177 141 115 85
63.879303 -54.421646 -9.196859 123 100 76
70.603455 -54.421646 -18.037046 110 94 76
-63.879303 -59.935928 -13.278320 162 175 182
-57.155182 -59.935928 -8.146826 104 106 108
-50.431030 -59.935928 -5.218699 94 85 81
-43.706909 -59.935928 -3.140069 100 82 69
-36.982758 -59.935928 -1.586287 127 103 82
-30.258606 -59.935928 -0.401278 116 90 63
-23.534485 -59.935928 0.523962 145 110 89
-16.810333 -59.935928 1.263521 152 114 91
-10.086212 -59.935928 1.825682 159 115 96
-3.362061 -59.935928 2.144564 158 111 93
3.362061 -59.935928 2.144564 154 107 88
10.086212 -59.935928 1.825682 154 108 90
16.810333 -59.935928 1.263521 160 115 93
23.534485 -59.935928 0.523962 169 127 98
30.258606 -59.935928 -0.401278 168 125 93
36.982758 -59.935928 -1.586287 158 124 90
43.706909 -59.935928 -3.140069 147 115 84
50.431030 -59.935928 -5.218699 150 120 89
57.155182 -59.935928 -8.146826 136 111 80
63.879303 -59.935928 -13.278320 122 102 79
-63.879303 -65.450226 -18.037046 106 104 105
-57.155182 -65.450226 -11.923771 102 100 101
-50.431030 -65.450226 -7.870328 105 104 100
-43.706909 -65.450226 -5.396250 87 76 63
-36.982758 -65.450226 -3.685316 118 99 79
-30.258606 -65.450226 -2.497083 120 94 68
-23.534485 -65.450226 -1.707394 150 114 91
-16.810333 -65.450226 -1.221132 166 125 104
-10.086212 -65.450226 -0.953737 145 98 81
-3.362061 -65.450226 -0.838409 105 69 60
3.362061 -65.450226 -0.838409 97 67 55
10.086212 -65.450226 -0.953737 120 80 62
16.810333 -65.450226 -1.221132 148 102 77
23.534485 -65.450226 -1.707394 170 124 94
30.258606 -65.450226 -2.497083 173 127 96
36.982758 -65.450226 -3.685316 161 124 90
43.706909 -65.450226 -5.396250 137 103 72
50.431030 -65.450226 -7.870328 145 115 87
57.155182 -65.450226 -11.923771 129 108 81
63.879303 -65.450226 -18.037046 89 77 57
-57.155182 -70.964508 -18.037046 109 109 109
-50.431030 -70.964508 -11.863244 93 91 87
-43.706909 -70.964508 -8.365439 74 70 66
-36.982758 -70.964508 -6.298628 83 73 62
-30.258606 -70.964508 -4.995246 122 97 80
-23.534485 -70.964508 -4.225767 157 120 97
-16.810333 -70.964508 -3.836231 171 133 109
-10.086212 -70.964508 -3.684497 160 119 97
-3.362061 -70.964508 -3.646223 132 92 73
3.362061 -70.964508 -3.646223 105 78 65
10.086212 -70.964508 -3.684497 130 93 72
16.810333 -70.964508 -3.836231 170 126 101
23.534485 -70.964508 -4.225767 180 133 105
30.258606 -70.964508 -4.995246 174 129 100
36.982758 -70.964508 -6.298628 158 119 87
43.706909 -70.964508 -8.365439 128 105 78
50.431030 -70.964508 -11.863244 118 97 76
57.155182 -70.964508 -18.037046 93 72 58
-50.431030 -76.478806 -18.037046 82 79 76
-43.706909 -76.478806 -13.043618 84 84 82
-36.982758 -76.478806 -9.760131 50 45 41
-30.258606 -76.478806 -8.045215 81 65 53
-23.534485 -76.478806 -7.122294 145 114 90
-16.810333 -76.478806 -6.700510 182 147 119
-10.086212 -76.478806 -6.567479 196 154 129
-3.362061 -76.478806 -6.551585 164 127 102
3.362061 -76.478806 -6.551585 165 127 102
10.086212 -76.478806 -6.567479 151 113 90
16.810333 -76.478806 -6.700510 173 130 106
23.534485 -76.478806 -7.122294 183 137 110
30.258606 -76.478806 -8.045215 176 135 105
36.982758 -76.478806 -9.760131 155 121 95
43.706909 -76.478806 -13.043618 111 89 69
50.431030 -76.478806 -18.037046 91 68 52
-43.706909 -81.993088 -18.037046 82 80 76
-36.982758 -81.993088 -16.776119 64 58 53
-30.258606 -81.993088 -12.282400 60 44 46
-23.534485 -81.993088 -10.645996 103 84 71
-16.810333 -81.993088 -9.881335 183 147 119
-10.086212 -81.993088 -9.569522 206 162 135
-3.362061 -81.993088 -9.475042 201 158 133
3.362061 -81.993088 -9.475042 179 142 115
10.086212 -81.993088 -9.569522 146 110 87
16.810333 -81.993088 -9.881335 163 128 102
23.534485 -81.993088 -10.645996 173 131 107
30.258606 -81.993088 -12.282400 159 123 97
36.982758 -81.993088 -16.776119 123 101 78
43.706909 -81.993088 -18.037046 93 77 61
-36.982758 -87.507370 -18.037046 91 87 85
-30.258606 -87.507370 -18.037046 117 102 92
-23.534485 -87.507370 -18.037046 76 57 50
-16.810333 -87.507370 -14.710317 141 116 97
-10.086212 -87.507370 -13.598222 177 141 119
-3.362061 -87.507370 -13.190480 160 125 103
3.362061 -87.507370 -13.190480 144 110 90
10.086212 -87.507370 -13.598222 132 102 82
16.810333 -87.507370 -14.710317 139 111 86
23.534485 -87.507370 -18.037046 125 101 75
30.258606 -87.507370 -18.037046 114 93 69
36.982758 -87.507370 -18.037046 90 79 56
-23.534485 -93.021652 -18.037046 124 98 77
-16.810333 -93.021652 -18.037046 76 53 41
-10.086212 -93.021652 -18.037046 97 80 60
-3.362061 -93.021652 -18.037046 103 81 63
3.362061 -93.021652 -18.037046 109 88 69
10.086212 -93.021652 -18.037046 87 68 46
16.810333 -93.021652 -18.037046 117 93 77
23.534485 -93.021652 -18.037046 100 79 63
3 221 196 220
3 16 6 0
3 646 604 580
3 603 625 665
3 171 195 245
3 6 7 0
3 17 6 16
3 65 46 64
3 556 506 580
3 556 532 506
3 532 507 506
3 626 604 646
3 604 626 605
3 604 581 580
3 29 15 28
3 15 29 5
3 15 27 28
3 7 8 0
3 104 84 64
3 84 104 105
3 196 172 220
3 172 148 220
3 716 715 726
3 625 645 665
3 645 625 624
3 683 699 713
3 83 103 125
3 103 124 125
3 195 219 245
3 83 63 82
3 17 18 6
3 126 104 148
3 714 701 700
3 715 714 726
3 725 724 733
3 712 725 713
3 219 244 245
3 63 45 62
3 45 63 29
3 149 126 148
3 47 30 46
3 46 30 16
3 724 723 733
3 699 698 713
3 531 579 603
3 579 531 555
3 602 625 603
3 531 530 555
3 147 171 125
3 13 14 5
3 14 15 5
3 44 45 29
3 666 684 667
3 684 666 700
3 685 684 700
3 664 683 665
3 682 699 683
3 30 31 16
3 666 647 646
3 147 170 171
3 403 376 402
3 376 403 377
3 556 581 557
3 581 556 580
3 140 163 141
3 163 164 141
3 183 206 207
3 206 183 182
3 181 206 182
3 206 181 205
3 282 257 256
3 257 282 283
3 1 10 2
3 10 1 9
3 8 1 0
3 1 8 9
3 19 8 7
3 8 19 20
3 65 84 85
3 84 65 64
3 225 224 250
3 251 225 250
3 222 247 248
3 247 222 221
3 37 38 23
3 37 23 22
3 21 10 9
3 10 21 22
3 21 37 22
3 37 21 36
3 8 21 9
3 21 8 20
3 19 35 20
3 35 19 34
3 21 35 36
3 35 21 20
3 2 11 3
3 10 11 2
3 23 11 22
3 11 10 22
3 115 138 116
3 138 115 137
3 533 556 557
3 556 533 532
3 582 581 604
3 582 604 605
3 312 339 313
3 339 312 338
3 102 103 83
3 102 83 82
3 124 102 123
3 103 102 124
3 122 143 144
3 143 122 121
3 122 100 121
3 100 122 101
3 102 122 123
3 122 102 101
3 239 265 240
3 265 266 240
3 81 100 101
3 100 81 80
3 81 102 82
3 102 81 101
3 63 81 82
3 81 63 62
3 79 61 60
3 61 79 80
3 81 61 80
3 61 81 62
3 284 257 283
3 257 284 258
3 206 231 207
3 231 232 207
3 231 257 258
3 232 231 258
3 342 315 341
3 315 342 316
3 306 279 305
3 279 306 280
3 438 413 412
3 413 438 439
3 306 331 332
3 331 306 305
3 279 304 305
3 304 279 278
3 304 331 305
3 331 304 330
3 252 225 251
3 225 252 226
3 279 252 278
3 252 279 253
3 252 253 227
3 226 252 227
3 275 276 249
3 249 276 250
3 277 304 278
3 304 277 303
3 277 252 251
3 252 277 278
3 277 251 250
3 276 277 250
3 18 19 7
3 18 7 6
3 19 18 34
3 18 33 34
3 222 197 221
3 197 196 221
3 109 130 131
3 130 109 108
3 201 226 227
3 202 201 227
3 201 202 178
3 177 201 178
3 110 109 131
3 110 131 132
3 230 206 205
3 230 231 206
3 257 230 256
3 231 230 257
3 228 202 227
3 228 203 202
3 161 138 137
3 160 161 137
3 139 163 140
3 163 139 162
3 161 139 138
3 139 161 162
3 180 157 156
3 157 180 181
3 37 55 38
3 55 37 54
3 55 73 74
3 73 55 54
3 481 480 507
3 507 480 506
3 428 403 402
3 428 429 403
3 480 455 454
3 455 480 481
3 455 428 454
3 428 455 429
3 508 533 534
3 509 508 534
3 533 508 532
3 508 507 532
3 558 533 557
3 533 558 534
3 581 558 557
3 582 558 581
3 461 488 462
3 488 461 487
3 463 488 489
3 462 488 463
3 714 702 701
3 702 714 715
3 712 724 725
3 724 712 711
3 623 644 645
3 623 645 624
3 502 529 503
3 529 502 528
3 451 426 425
3 426 451 452
3 423 448 449
3 448 423 422
3 464 463 489
3 490 464 489
3 491 516 517
3 516 491 490
3 322 295 321
3 295 322 296
3 322 323 297
3 322 297 296
3 413 386 412
3 386 413 387
3 361 386 387
3 386 361 360
3 386 360 359
3 385 386 359
3 159 184 160
3 184 159 183
3 184 161 160
3 161 184 185
3 287 312 313
3 312 287 286
3 161 186 162
3 186 161 185
3 210 186 209
3 186 185 209
3 341 366 367
3 366 341 340
3 97 98 78
3 77 97 78
3 97 76 96
3 76 97 77
3 119 140 141
3 119 118 140
3 97 119 98
3 119 97 118
3 12 4 3
3 11 12 3
3 4 12 5
3 12 13 5
3 42 26 41
3 26 42 27
3 26 40 41
3 40 26 25
3 119 99 98
3 99 119 120
3 98 99 78
3 99 79 78
3 100 99 121
3 99 120 121
3 99 100 80
3 79 99 80
3 189 165 188
3 165 164 188
3 165 189 190
3 166 165 190
3 133 112 111
3 112 133 134
3 157 133 156
3 133 157 134
3 133 110 132
3 110 133 111
3 204 230 205
3 230 204 229
3 181 204 205
3 180 204 181
3 228 204 203
3 204 228 229
3 202 179 178
3 203 179 202
3 179 204 180
3 204 179 203
3 315 314 341
3 341 314 340
3 339 314 313
3 314 339 340
3 287 314 288
3 314 287 313
3 368 342 341
3 368 341 367
3 368 343 342
3 343 368 369
3 461 486 487
3 486 461 460
3 486 459 485
3 459 486 460
3 461 434 460
3 434 461 435
3 434 459 460
3 459 434 433
3 409 434 435
3 434 409 408
3 408 409 382
3 409 383 382
3 436 461 462
3 461 436 435
3 436 409 435
3 409 436 410
3 304 329 330
3 329 304 303
3 330 329 356
3 329 355 356
3 329 354 355
3 354 329 328
3 331 357 332
3 357 358 332
3 383 357 382
3 382 357 356
3 357 331 330
3 357 330 356
3 459 458 485
3 458 484 485
3 458 459 433
3 432 458 433
3 302 276 275
3 302 275 301
3 302 329 303
3 329 302 328
3 277 302 303
3 302 277 276
3 126 127 104
3 104 127 105
3 200 225 226
3 201 200 226
3 225 200 224
3 200 199 224
3 224 223 250
3 223 249 250
3 223 222 248
3 223 248 249
3 66 65 85
3 86 66 85
3 65 66 46
3 66 47 46
3 109 87 108
3 88 87 109
3 110 89 109
3 89 88 109
3 254 279 280
3 279 254 253
3 253 254 227
3 254 228 227
3 138 117 116
3 139 117 138
3 117 97 96
3 97 117 118
3 117 139 140
3 118 117 140
3 113 112 134
3 135 113 134
3 113 91 112
3 91 113 92
3 183 158 182
3 159 158 183
3 158 181 182
3 158 157 181
3 157 158 134
3 158 135 134
3 115 136 137
3 136 115 114
3 136 160 137
3 136 159 160
3 136 113 135
3 113 136 114
3 136 158 159
3 158 136 135
3 55 56 38
3 56 39 38
3 117 95 116
3 95 117 96
3 95 115 116
3 95 94 115
3 115 93 114
3 94 93 115
3 73 93 74
3 93 94 74
3 113 93 92
3 93 113 114
3 562 538 561
3 538 537 561
3 482 455 481
3 455 482 456
3 482 481 507
3 508 482 507
3 482 508 509
3 483 482 509
3 627 606 626
3 626 606 605
3 563 538 562
3 538 563 539
3 563 540 539
3 563 564 540
3 632 612 611
3 612 632 633
3 563 588 564
3 588 563 587
3 588 589 565
3 564 588 565
3 612 588 611
3 588 612 589
3 703 717 704
3 717 703 716
3 703 702 715
3 716 703 715
3 731 721 730
3 721 720 730
3 721 722 709
3 708 721 709
3 721 731 732
3 722 721 732
3 707 691 706
3 691 707 692
3 719 707 706
3 707 719 720
3 721 707 720
3 707 721 708
3 675 691 692
3 691 675 674
3 727 717 716
3 727 716 726
3 723 724 711
3 710 723 711
3 723 732 733
3 723 722 732
3 722 723 709
3 723 710 709
3 602 579 578
3 579 602 603
3 602 601 624
3 625 602 624
3 637 658 638
3 658 637 657
3 658 639 638
3 639 658 659
3 426 400 425
3 400 399 425
3 427 426 452
3 453 427 452
3 320 347 321
3 347 320 346
3 423 398 397
3 398 423 424
3 399 398 425
3 425 398 424
3 478 479 453
3 478 453 452
3 579 554 578
3 554 579 555
3 530 554 555
3 554 530 529
3 450 423 449
3 423 450 424
3 450 451 425
3 450 425 424
3 549 574 550
3 574 549 573
3 525 549 550
3 549 525 524
3 515 490 489
3 515 516 490
3 488 515 489
3 515 488 514
3 540 515 539
3 515 514 539
3 564 541 540
3 541 564 565
3 515 541 516
3 541 515 540
3 492 491 517
3 518 492 517
3 492 493 467
3 492 467 466
3 492 518 519
3 493 492 519
3 440 465 466
3 465 440 439
3 492 465 491
3 465 492 466
3 438 465 439
3 464 465 438
3 465 464 490
3 491 465 490
3 388 361 387
3 361 388 362
3 388 363 362
3 363 388 389
3 270 295 296
3 295 270 269
3 270 243 269
3 270 244 243
3 271 270 297
3 297 270 296
3 270 271 245
3 244 270 245
3 386 411 412
3 411 386 385
3 384 385 359
3 358 384 359
3 384 411 385
3 411 384 410
3 357 384 358
3 384 357 383
3 409 384 383
3 384 409 410
3 358 333 332
3 333 358 359
3 234 208 233
3 208 234 209
3 184 208 185
3 185 208 209
3 232 208 207
3 233 208 232
3 208 183 207
3 208 184 183
3 235 210 209
3 234 235 209
3 187 186 210
3 187 210 211
3 187 163 162
3 186 187 162
3 187 212 188
3 212 187 211
3 163 187 164
3 164 187 188
3 238 265 239
3 265 238 264
3 238 263 264
3 263 238 237
3 289 315 316
3 290 289 316
3 263 289 264
3 289 290 264
3 289 314 315
3 314 289 288
3 266 241 240
3 241 266 267
3 145 122 144
3 122 145 123
3 145 124 123
3 145 146 124
3 146 147 124
3 124 147 125
3 244 218 243
3 218 244 219
3 218 219 195
3 194 218 195
3 38 24 23
3 39 24 38
3 24 11 23
3 24 12 11
3 24 40 25
3 40 24 39
3 12 24 13
3 13 24 25
3 14 26 27
3 15 14 27
3 26 14 25
3 14 13 25
3 59 77 78
3 77 59 58
3 59 42 41
3 59 41 58
3 59 79 60
3 79 59 78
3 42 43 27
3 27 43 28
3 59 43 42
3 43 59 60
3 142 119 141
3 119 142 120
3 164 142 141
3 165 142 164
3 142 143 121
3 120 142 121
3 142 165 166
3 142 166 143
3 241 215 240
3 215 241 216
3 191 215 192
3 215 216 192
3 215 239 240
3 215 214 239
3 214 215 190
3 215 191 190
3 266 293 267
3 292 293 266
3 319 292 318
3 319 293 292
3 294 295 269
3 268 294 269
3 295 294 321
3 294 320 321
3 293 294 267
3 294 268 267
3 319 294 293
3 294 319 320
3 44 61 62
3 45 44 62
3 43 44 28
3 44 29 28
3 61 44 60
3 44 43 60
3 309 284 283
3 309 310 284
3 282 309 283
3 308 309 282
3 336 361 362
3 361 336 335
3 309 336 310
3 336 309 335
3 284 259 258
3 259 284 285
3 259 232 258
3 259 233 232
3 131 155 132
3 154 155 131
3 179 155 178
3 155 154 178
3 133 155 156
3 155 133 132
3 155 180 156
3 155 179 180
3 291 265 264
3 290 291 264
3 265 291 266
3 291 292 266
3 423 396 422
3 396 423 397
3 396 371 370
3 371 396 397
3 395 396 369
3 396 370 369
3 344 343 369
3 370 344 369
3 246 247 221
3 246 221 220
3 274 275 249
3 248 274 249
3 327 302 301
3 302 327 328
3 431 406 405
3 406 431 432
3 455 430 429
3 430 455 456
3 150 127 126
3 149 150 126
3 173 150 149
3 150 173 174
3 197 173 196
3 173 172 196
3 172 173 148
3 173 149 148
3 199 198 224
3 198 223 224
3 173 198 174
3 198 173 197
3 198 197 222
3 223 198 222
3 18 32 33
3 32 18 17
3 33 32 50
3 32 49 50
3 89 68 88
3 68 89 69
3 50 68 69
3 49 68 50
3 228 255 229
3 254 255 228
3 255 254 280
3 281 255 280
3 230 255 256
3 255 230 229
3 255 282 256
3 255 281 282
3 33 51 34
3 51 33 50
3 51 35 34
3 51 52 35
3 53 37 36
3 37 53 54
3 35 53 36
3 52 53 35
3 90 110 111
3 90 89 110
3 112 90 111
3 91 90 112
3 56 57 39
3 57 40 39
3 57 76 77
3 57 77 58
3 40 57 41
3 41 57 58
3 75 55 74
3 75 56 55
3 95 75 94
3 94 75 74
3 75 57 56
3 57 75 76
3 76 75 96
3 75 95 96
3 537 560 561
3 536 560 537
3 511 486 485
3 486 511 512
3 511 536 537
3 511 537 512
3 558 535 534
3 535 558 559
3 535 560 536
3 560 535 559
3 486 513 487
3 513 486 512
3 538 513 537
3 537 513 512
3 513 488 487
3 488 513 514
3 513 538 539
3 514 513 539
3 583 558 582
3 558 583 559
3 583 582 605
3 606 583 605
3 583 560 559
3 560 583 584
3 610 632 611
3 632 610 631
3 610 588 587
3 588 610 611
3 586 563 562
3 563 586 587
3 586 610 587
3 610 586 609
3 684 685 667
3 685 668 667
3 589 590 565
3 590 566 565
3 703 688 702
3 702 688 687
3 688 689 672
3 671 688 672
3 688 703 704
3 689 688 704
3 570 547 546
3 547 570 571
3 547 521 546
3 521 547 522
3 720 729 730
3 719 729 720
3 676 656 675
3 656 676 657
3 644 664 645
3 645 664 665
3 682 664 663
3 664 682 683
3 698 682 681
3 682 698 699
3 698 697 713
3 697 712 713
3 712 697 711
3 697 696 711
3 695 710 711
3 696 695 711
3 639 618 638
3 618 617 638
3 401 375 374
3 400 401 374
3 401 400 426
3 427 401 426
3 348 322 321
3 347 348 321
3 349 348 375
3 375 348 374
3 348 349 323
3 322 348 323
3 400 373 399
3 373 400 374
3 373 348 347
3 348 373 374
3 451 477 452
3 477 478 452
3 477 504 478
3 504 477 503
3 529 504 503
3 530 504 529
3 479 504 505
3 478 504 479
3 504 531 505
3 504 530 531
3 474 473 499
3 474 499 500
3 474 448 447
3 473 474 447
3 474 501 475
3 501 474 500
3 448 474 449
3 449 474 475
3 467 441 466
3 441 440 466
3 516 542 517
3 541 542 516
3 542 541 565
3 566 542 565
3 542 518 517
3 518 542 543
3 365 366 340
3 339 365 340
3 441 414 440
3 414 441 415
3 388 414 389
3 389 414 415
3 414 413 439
3 440 414 439
3 413 414 387
3 414 388 387
3 469 468 495
3 468 494 495
3 468 441 467
3 441 468 442
3 493 468 467
3 468 493 494
3 421 448 422
3 448 421 447
3 396 421 422
3 421 396 395
3 368 394 369
3 394 395 369
3 394 421 395
3 421 394 420
3 421 446 447
3 446 421 420
3 437 462 463
3 437 436 462
3 436 437 410
3 437 411 410
3 464 437 463
3 437 464 438
3 437 438 412
3 411 437 412
3 360 334 359
3 334 333 359
3 361 334 360
3 334 361 335
3 334 309 308
3 309 334 335
3 306 307 280
3 307 281 280
3 307 306 332
3 333 307 332
3 307 308 282
3 281 307 282
3 334 307 333
3 307 334 308
3 262 289 263
3 289 262 288
3 189 213 190
3 213 214 190
3 213 238 239
3 214 213 239
3 213 189 188
3 212 213 188
3 238 213 237
3 213 212 237
3 243 242 269
3 242 268 269
3 242 241 267
3 268 242 267
3 143 167 144
3 166 167 143
3 167 166 190
3 191 167 190
3 363 337 362
3 337 336 362
3 260 259 285
3 260 285 286
3 260 234 233
3 259 260 233
3 344 317 343
3 317 344 318
3 292 317 318
3 291 317 292
3 342 317 316
3 343 317 342
3 317 290 316
3 317 291 290
3 320 345 346
3 319 345 320
3 345 319 318
3 344 345 318
3 371 345 370
3 345 344 370
3 247 273 248
3 273 274 248
3 273 246 272
3 246 273 247
3 273 272 298
3 299 273 298
3 300 327 301
3 327 300 326
3 275 300 301
3 274 300 275
3 273 300 274
3 300 273 299
3 434 407 433
3 407 434 408
3 407 432 433
3 407 406 432
3 351 376 377
3 351 350 376
3 378 351 377
3 352 351 378
3 353 352 378
3 353 378 379
3 353 327 326
3 352 353 326
3 353 354 328
3 327 353 328
3 482 457 456
3 457 482 483
3 457 430 456
3 430 457 431
3 458 457 484
3 484 457 483
3 457 458 432
3 431 457 432
3 403 404 377
3 404 378 377
3 429 404 403
3 430 404 429
3 378 404 379
3 404 405 379
3 404 431 405
3 404 430 431
3 153 177 178
3 154 153 178
3 130 153 131
3 153 154 131
3 176 201 177
3 176 200 201
3 153 176 177
3 176 153 152
3 153 129 152
3 129 153 130
3 31 32 17
3 31 17 16
3 67 66 86
3 87 67 86
3 67 87 88
3 68 67 88
3 72 91 92
3 91 72 71
3 72 53 52
3 72 52 71
3 72 93 73
3 93 72 92
3 72 73 54
3 53 72 54
3 51 70 52
3 52 70 71
3 70 90 91
3 70 91 71
3 70 50 69
3 70 51 50
3 89 70 69
3 90 70 89
3 510 483 509
3 510 484 483
3 510 509 534
3 535 510 534
3 484 510 485
3 510 511 485
3 511 510 536
3 510 535 536
3 607 606 627
3 607 627 628
3 607 583 606
3 583 607 584
3 560 585 561
3 585 560 584
3 607 585 584
3 585 607 608
3 585 562 561
3 585 586 562
3 586 585 609
3 585 608 609
3 627 647 628
3 647 648 628
3 647 666 667
3 648 647 667
3 647 627 626
3 647 626 646
3 610 630 631
3 630 610 609
3 630 651 631
3 651 630 650
3 652 671 672
3 653 652 672
3 632 652 633
3 652 653 633
3 652 632 631
3 651 652 631
3 612 613 589
3 613 590 589
3 518 544 519
3 544 518 543
3 549 548 573
3 548 572 573
3 548 547 571
3 572 548 571
3 496 521 522
3 521 496 495
3 525 498 524
3 498 525 499
3 718 727 728
3 727 718 717
3 717 718 704
3 718 705 704
3 729 718 728
3 718 729 719
3 718 719 706
3 705 718 706
3 690 691 674
3 673 690 674
3 691 690 706
3 690 705 706
3 689 690 672
3 690 673 672
3 690 689 704
3 705 690 704
3 707 693 692
3 693 707 708
3 693 675 692
3 693 676 675
3 616 637 638
3 617 616 638
3 616 617 594
3 593 616 594
3 569 593 594
3 570 569 594
3 598 574 573
3 597 598 573
3 680 698 681
3 680 697 698
3 662 682 663
3 682 662 681
3 662 680 681
3 680 662 661
3 570 595 571
3 595 570 594
3 618 595 617
3 617 595 594
3 372 347 346
3 372 373 347
3 372 398 399
3 373 372 399
3 345 372 346
3 372 345 371
3 398 372 397
3 372 371 397
3 476 502 503
3 477 476 503
3 450 476 451
3 476 477 451
3 501 476 475
3 476 501 502
3 476 450 449
3 476 449 475
3 577 602 578
3 602 577 601
3 600 623 624
3 601 600 624
3 577 600 601
3 600 577 576
3 364 339 338
3 364 365 339
3 364 337 363
3 337 364 338
3 364 363 389
3 390 364 389
3 441 416 415
3 416 441 442
3 416 389 415
3 416 390 389
3 443 468 469
3 468 443 442
3 443 416 442
3 416 443 417
3 365 391 366
3 366 391 392
3 364 391 365
3 391 364 390
3 416 391 390
3 391 416 417
3 391 418 392
3 418 391 417
3 443 418 417
3 418 443 444
3 366 393 367
3 393 366 392
3 418 393 392
3 393 418 419
3 393 368 367
3 393 394 368
3 394 393 420
3 393 419 420
3 261 287 288
3 262 261 288
3 287 261 286
3 261 260 286
3 261 235 234
3 260 261 234
3 236 212 211
3 212 236 237
3 236 263 237
3 236 262 263
3 235 236 210
3 210 236 211
3 236 261 262
3 261 236 235
3 217 218 194
3 193 217 194
3 218 217 243
3 217 242 243
3 216 217 192
3 217 193 192
3 241 217 216
3 242 217 241
3 168 191 192
3 168 167 191
3 168 145 144
3 167 168 144
3 193 168 192
3 169 168 193
3 145 168 146
3 168 169 146
3 170 193 194
3 170 169 193
3 170 147 146
3 169 170 146
3 170 194 195
3 171 170 195
3 311 312 286
3 285 311 286
3 312 311 338
3 311 337 338
3 310 311 284
3 284 311 285
3 336 311 310
3 337 311 336
3 355 381 356
3 381 382 356
3 381 408 382
3 381 407 408
3 324 325 298
3 325 299 298
3 350 325 324
3 351 325 350
3 300 325 326
3 325 300 299
3 325 351 352
3 325 352 326
3 175 198 199
3 198 175 174
3 200 175 199
3 176 175 200
3 87 107 108
3 107 87 86
3 107 130 108
3 107 129 130
3 32 48 49
3 31 48 32
3 48 68 49
3 48 67 68
3 48 30 47
3 48 31 30
3 66 48 47
3 67 48 66
3 702 686 701
3 686 702 687
3 701 686 700
3 686 685 700
3 685 686 668
3 686 669 668
3 688 670 687
3 670 688 671
3 652 670 671
3 670 652 651
3 670 686 687
3 686 670 669
3 670 651 650
3 669 670 650
3 668 649 667
3 649 648 667
3 669 649 668
3 649 669 650
3 520 493 519
3 493 520 494
3 494 520 495
3 520 521 495
3 567 542 566
3 542 567 543
3 590 567 566
3 591 567 590
3 567 544 543
3 544 567 568
3 569 592 593
3 592 569 568
3 592 567 591
3 567 592 568
3 498 523 524
3 523 498 497
3 523 549 524
3 523 548 549
3 523 496 522
3 496 523 497
3 547 523 522
3 548 523 547
3 470 443 469
3 443 470 444
3 470 469 495
3 496 470 495
3 470 496 497
3 471 470 497
3 472 473 447
3 446 472 447
3 473 472 499
3 472 498 499
3 498 472 497
3 472 471 497
3 710 694 709
3 695 694 710
3 694 708 709
3 694 693 708
3 640 639 659
3 660 640 659
3 697 679 696
3 680 679 697
3 679 680 661
3 660 679 661
3 679 695 696
3 679 678 695
3 679 660 659
3 678 679 659
3 623 643 644
3 643 623 622
3 643 664 644
3 664 643 663
3 642 662 663
3 643 642 663
3 572 596 573
3 596 597 573
3 596 572 571
3 595 596 571
3 574 575 550
3 575 551 550
3 499 526 500
3 525 526 499
3 526 525 550
3 551 526 550
3 553 529 528
3 553 554 529
3 554 553 578
3 553 577 578
3 445 418 444
3 418 445 419
3 470 445 444
3 445 470 471
3 445 446 420
3 419 445 420
3 445 472 446
3 472 445 471
3 354 380 355
3 380 381 355
3 407 380 406
3 381 380 407
3 380 353 379
3 353 380 354
3 406 380 405
3 405 380 379
3 151 176 152
3 151 175 176
3 129 151 152
3 128 151 129
3 151 150 174
3 175 151 174
3 150 151 127
3 151 128 127
3 106 86 85
3 106 107 86
3 107 106 129
3 106 128 129
3 84 106 85
3 106 84 105
3 127 106 105
3 128 106 127
3 629 607 628
3 607 629 608
3 648 629 628
3 649 629 648
3 608 629 609
3 629 630 609
3 630 629 650
3 629 649 650
3 675 655 674
3 656 655 675
3 613 614 590
3 614 591 590
3 545 544 568
3 569 545 568
3 544 545 519
3 545 520 519
3 545 570 546
3 545 569 570
3 521 545 546
3 520 545 521
3 658 677 659
3 677 678 659
3 677 694 695
3 678 677 695
3 677 658 657
3 676 677 657
3 693 677 676
3 694 677 693
3 621 643 622
3 621 642 643
3 641 640 660
3 641 660 661
3 662 641 661
3 642 641 662
3 600 599 623
3 623 599 622
3 599 600 576
3 575 599 576
3 599 621 622
3 621 599 598
3 598 599 574
3 599 575 574
3 502 527 528
3 501 527 502
3 527 501 500
3 526 527 500
3 654 653 672
3 673 654 672
3 654 673 674
3 655 654 674
3 615 616 593
3 592 615 593
3 615 592 591
3 614 615 591
3 620 598 597
3 620 621 598
3 621 620 642
3 620 641 642
3 577 552 576
3 553 552 577
3 552 553 528
3 527 552 528
3 575 552 551
3 552 575 576
3 552 526 551
3 552 527 526
3 634 612 633
3 634 613 612
3 653 634 633
3 654 634 653
3 634 614 613
3 614 634 635
3 634 654 655
3 634 655 635
3 637 636 657
3 636 656 657
3 616 636 637
3 615 636 616
3 636 655 656
3 655 636 635
3 636 615 614
3 636 614 635
3 641 619 640
3 620 619 641
3 596 619 597
3 619 620 597
3 619 618 639
3 640 619 639
3 619 595 618
3 619 596 595
