ply
format ascii 1.0
comment 3D Face Reconstruction
element vertex 734
property float x
property float y
property float z
property uchar red
property uchar green
property uchar blue
element face 1410
property list uchar int vertex_indices
end_header
-17.068970 94.953537 -8.773104 235 212 192
-10.241394 94.953537 -7.907298 227 194 176
-3.413788 94.953537 -7.500358 203 164 137
3.413788 94.953537 -7.500358 179 143 117
10.241394 94.953537 -7.907298 154 118 96
17.068970 94.953537 -8.773104 127 99 81
-30.724152 89.410675 -7.880430 229 191 172
-23.896545 89.410675 -6.338981 238 214 197
-17.068970 89.410675 -5.302178 244 221 205
-10.241394 89.410675 -4.654626 233 201 183
-3.413788 89.410675 -4.342099 223 184 161
3.413788 89.410675 -4.342099 211 167 138
10.241394 89.410675 -4.654626 194 152 123
17.068970 89.410675 -5.302178 170 135 109
23.896545 89.410675 -6.338981 147 115 95
30.724152 89.410675 -7.880430 135 107 89
-44.379303 83.867828 -8.979617 211 162 131
-37.551727 83.867828 -6.526586 217 169 139
-30.724152 83.867828 -4.818797 228 190 168
-23.896545 83.867828 -3.594538 238 207 187
-17.068970 83.867828 -2.739367 234 205 184
-10.241394 83.867828 -2.194439 230 193 171
-3.413788 83.867828 -1.928768 222 183 156
3.413788 83.867828 -1.928768 215 171 142
10.241394 83.867828 -2.194439 206 161 131
17.068970 83.867828 -2.739367 200 155 124
23.896545 83.867828 -3.594538 189 148 116
30.724152 83.867828 -4.818797 176 135 110
37.551727 83.867828 -6.526586 163 131 106
44.379303 83.867828 -8.979617 145 118 99
-51.206909 78.324966 -8.571018 197 152 119
-44.379303 78.324966 -5.849103 207 159 126
-37.551727 78.324966 -3.920020 214 163 132
-30.724152 78.324966 -2.491095 218 173 144
-23.896545 78.324966 -1.434824 226 183 161
-17.068970 78.324966 -0.684103 223 181 154
-10.241394 78.324966 -0.200899 222 180 159
-3.413788 78.324966 0.035933 221 177 152
3.413788 78.324966 0.035933 216 171 139
10.241394 78.324966 -0.200899 206 161 132
17.068970 78.324966 -0.684103 201 156 126
23.896545 78.324966 -1.434824 197 152 121
30.724152 78.324966 -2.491095 191 145 116
37.551727 78.324966 -3.920020 177 141 113
44.379303 78.324966 -5.849103 162 132 108
51.206909 78.324966 -8.571018 140 117 97
-58.034485 72.782104 -8.876444 169 135 109
-51.206909 72.782104 -5.738196 198 155 122
-44.379303 72.782104 -3.528893 200 155 120
-37.551727 72.782104 -1.869772 202 155 121
-30.724152 72.782104 -0.605513 207 157 124
-23.896545 72.782104 0.344318 207 158 130
-17.068970 72.782104 1.026104 209 162 134
-10.241394 72.782104 1.467579 206 161 131
-3.413788 72.782104 1.684662 207 162 131
3.413788 72.782104 1.684662 205 160 127
10.241394 72.782104 1.467579 204 158 131
17.068970 72.782104 1.026104 196 151 120
23.896545 72.782104 0.344318 196 147 118
30.724152 72.782104 -0.605513 188 142 115
37.551727 72.782104 -1.869772 176 135 110
44.379303 72.782104 -3.528893 166 129 107
51.206909 72.782104 -5.738196 157 125 101
58.034485 72.782104 -8.876444 130 112 92
-64.862061 67.239258 -9.973967 67 62 67
-58.034485 67.239258 -6.178323 171 139 114
-51.206909 67.239258 -3.604865 196 151 118
-44.379303 67.239258 -1.676468 198 151 118
-37.551727 67.239258 -0.186096 195 146 108
-30.724152 67.239258 0.968088 201 152 116
-23.896545 67.239258 1.843910 204 152 119
-17.068970 67.239258 2.476580 213 163 137
-10.241394 67.239258 2.887873 208 159 129
-3.413788 67.239258 3.090557 206 159 129
3.413788 67.239258 3.090557 203 157 125
10.241394 67.239258 2.887873 197 152 119
17.068970 67.239258 2.476580 193 146 115
23.896545 67.239258 1.843910 192 143 116
30.724152 67.239258 0.968088 185 139 110
37.551727 67.239258 -0.186096 173 133 108
44.379303 67.239258 -1.676468 165 127 104
51.206909 67.239258 -3.604865 159 126 100
58.034485 67.239258 -6.178323 153 126 107
64.862061 67.239258 -9.973967 90 82 77
-64.862061 61.696396 -7.234957 71 66 70
-58.034485 61.696396 -4.155453 173 142 115
-51.206909 61.696396 -1.896059 189 145 113
-44.379303 61.696396 -0.148159 196 149 115
-37.551727 61.696396 1.225994 203 156 122
-30.724152 61.696396 2.301271 209 157 125
-23.896545 61.696396 3.122696 222 176 144
-17.068970 61.696396 3.718676 228 188 158
-10.241394 61.696396 4.107197 218 172 141
-3.413788 61.696396 4.298956 208 160 132
3.413788 61.696396 4.298956 200 155 122
10.241394 61.696396 4.107197 198 154 121
17.068970 61.696396 3.718676 198 152 119
23.896545 61.696396 3.122696 195 149 118
30.724152 61.696396 2.301271 187 142 113
37.551727 61.696396 1.225994 174 135 110
44.379303 61.696396 -0.148159 156 120 95
51.206909 61.696396 -1.896059 146 116 93
58.034485 61.696396 -4.155453 144 117 99
64.862061 61.696396 -7.234957 94 85 80
-71.689667 56.153534 -9.118204 71 67 68
-64.862061 56.153534 -5.240480 72 70 70
-58.034485 56.153534 -2.545785 176 142 116
-51.206909 56.153534 -0.489265 193 150 118
-44.379303 56.153534 1.132601 195 147 111
-37.551727 56.153534 2.422054 208 160 127
-30.724152 56.153534 3.438290 215 170 136
-23.896545 56.153534 4.218302 229 186 155
-17.068970 56.153534 4.786034 237 197 171
-10.241394 56.153534 5.156893 225 181 154
-3.413788 56.153534 5.340143 211 167 136
3.413788 56.153534 5.340143 209 164 135
10.241394 56.153534 5.156893 207 162 133
17.068970 56.153534 4.786034 210 165 135
23.896545 56.153534 4.218302 205 158 124
30.724152 56.153534 3.438290 195 149 118
37.551727 56.153534 2.422054 177 140 112
44.379303 56.153534 1.132601 156 122 99
51.206909 56.153534 -0.489265 140 110 89
58.034485 56.153534 -2.545785 142 115 99
64.862061 56.153534 -5.240480 104 91 89
71.689667 56.153534 -9.118204 56 55 61
-71.689667 50.610687 -7.012843 61 69 71
-64.862061 50.610687 -3.682835 80 80 76
-58.034485 50.610687 -1.232111 189 151 123
-51.206909 50.610687 0.682722 198 155 124
-44.379303 50.610687 2.212187 208 164 130
-37.551727 50.610687 3.437725 211 166 133
-30.724152 50.610687 4.408575 212 167 134
-23.896545 50.610687 5.156372 212 165 135
-17.068970 50.610687 5.701950 215 166 135
-10.241394 50.610687 6.058884 212 160 129
-3.413788 50.610687 6.235405 206 161 130
3.413788 50.610687 6.235405 205 160 131
10.241394 50.610687 6.058884 211 166 137
17.068970 50.610687 5.701950 208 162 131
23.896545 50.610687 5.156372 198 151 113
30.724152 50.610687 4.408575 185 141 109
37.551727 50.610687 3.437725 178 143 117
44.379303 50.610687 2.212187 158 128 106
51.206909 50.610687 0.682722 150 117 98
58.034485 50.610687 -1.232111 142 117 99
64.862061 50.610687 -3.682835 100 89 84
71.689667 50.610687 -7.012843 55 53 56
-78.517242 45.067825 -9.896006 205 225 236
-71.689667 45.067825 -5.435642 63 73 73
-64.862061 45.067825 -2.432967 120 110 96
-58.034485 45.067825 -0.150126 195 157 128
-51.206909 45.067825 1.661137 208 166 134
-44.379303 45.067825 3.120567 212 172 140
-37.551727 45.067825 4.296455 205 169 136
-30.724152 45.067825 5.231714 202 163 133
-23.896545 45.067825 5.954420 196 153 122
-17.068970 45.067825 6.482870 187 146 115
-10.241394 45.067825 6.828976 190 147 115
-3.413788 45.067825 7.000208 192 150 119
3.413788 45.067825 7.000208 200 155 123
10.241394 45.067825 6.828976 197 154 120
17.068970 45.067825 6.482870 190 145 113
23.896545 45.067825 5.954420 185 140 114
30.724152 45.067825 5.231714 178 141 114
37.551727 45.067825 4.296455 167 134 111
44.379303 45.067825 3.120567 163 132 110
51.206909 45.067825 1.661137 154 125 105
58.034485 45.067825 -0.150126 139 114 97
64.862061 45.067825 -2.432967 115 103 92
71.689667 45.067825 -5.435642 81 76 77
78.517242 45.067825 -9.896006 194 217 227
-78.517242 39.524963 -8.116930 203 224 233
-71.689667 39.524963 -4.208322 96 106 101
-64.862061 39.524963 -1.422482 188 159 131
-58.034485 39.524963 0.739193 190 162 132
-51.206909 39.524963 2.470829 131 105 91
-44.379303 39.524963 3.870943 123 101 89
-37.551727 39.524963 5.000441 109 89 82
-30.724152 39.524963 5.904676 98 75 67
-23.896545 39.524963 6.612682 80 62 50
-17.068970 39.524963 7.135260 103 81 66
-10.241394 39.524963 7.477329 149 118 96
-3.413788 39.524963 7.645773 167 131 106
3.413788 39.524963 7.645773 179 137 113
10.241394 39.524963 7.477329 173 133 109
17.068970 39.524963 7.135260 159 118 99
23.896545 39.524963 6.612682 121 101 91
30.724152 39.524963 5.904676 99 83 76
37.551727 39.524963 5.000441 93 77 71
44.379303 39.524963 3.870943 103 90 81
51.206909 39.524963 2.470829 110 97 83
58.034485 39.524963 0.739193 136 117 102
64.862061 39.524963 -1.422482 136 121 108
71.689667 39.524963 -4.208322 67 62 63
78.517242 39.524963 -8.116930 200 224 231
-78.517242 33.982101 -6.821383 195 179 175
-71.689667 33.982101 -3.245185 131 118 109
-64.862061 33.982101 -0.610828 178 168 139
-58.034485 33.982101 1.457790 193 180 155
-51.206909 33.982101 3.110210 197 184 166
-44.379303 33.982101 4.413904 142 124 109
-37.551727 33.982101 5.437698 131 109 100
-30.724152 33.982101 6.290152 106 88 79
-23.896545 33.982101 7.032419 80 64 55
-17.068970 33.982101 7.619373 88 67 53
-10.241394 33.982101 7.999199 103 73 59
-3.413788 33.982101 8.178226 141 108 93
3.413788 33.982101 8.178226 139 108 90
10.241394 33.982101 7.999199 132 100 84
17.068970 33.982101 7.619373 94 78 65
23.896545 33.982101 7.032419 59 55 44
30.724152 33.982101 6.290152 50 42 34
37.551727 33.982101 5.437698 56 48 44
44.379303 33.982101 4.413904 56 51 45
51.206909 33.982101 3.110210 58 50 47
58.034485 33.982101 1.457790 75 70 63
64.862061 33.982101 -0.610828 137 119 109
71.689667 33.982101 -3.245185 88 79 75
78.517242 33.982101 -6.821383 207 228 238
-85.344818 28.439255 -11.134995 206 224 234
-78.517242 28.439255 -5.857586 158 117 115
-71.689667 28.439255 -2.498025 146 129 114
-64.862061 28.439255 0.026703 158 134 119
-58.034485 28.439255 2.009771 152 133 117
-51.206909 28.439255 3.523039 149 130 112
-44.379303 28.439255 4.541454 160 139 120
-37.551727 28.439255 5.194048 169 173 140
-30.724152 28.439255 5.892075 155 167 129
-23.896545 28.439255 6.851488 141 150 116
-17.068970 28.439255 7.775461 122 96 80
-10.241394 28.439255 8.354950 117 83 71
-3.413788 28.439255 8.595411 112 79 64
3.413788 28.439255 8.595411 118 86 73
10.241394 28.439255 8.354950 108 84 69
17.068970 28.439255 7.775461 180 174 162
23.896545 28.439255 6.851488 116 108 92
30.724152 28.439255 5.892075 100 92 77
37.551727 28.439255 5.194048 104 90 79
44.379303 28.439255 4.541454 100 85 74
51.206909 28.439255 3.523039 104 87 76
58.034485 28.439255 2.009771 101 88 79
64.862061 28.439255 0.026703 121 107 98
71.689667 28.439255 -2.498025 97 87 78
78.517242 28.439255 -5.857586 202 226 235
85.344818 28.439255 -11.134995 189 215 221
-85.344818 22.896393 -9.971215 206 225 236
-78.517242 22.896393 -5.152458 148 121 112
-71.689667 22.896393 -1.937330 106 83 69
-64.862061 22.896393 0.506865 170 144 124
-58.034485 22.896393 2.400833 151 129 112
-51.206909 22.896393 3.684986 123 103 89
-44.379303 22.896393 4.155014 109 92 77
-37.551727 22.896393 4.070330 163 171 135
-30.724152 22.896393 4.471241 148 154 121
-23.896545 22.896393 5.895685 156 169 133
-17.068970 22.896393 7.527683 116 92 78
-10.241394 22.896393 8.527168 119 89 79
-3.413788 22.896393 8.898182 129 103 90
3.413788 22.896393 8.898182 117 93 79
10.241394 22.896393 8.527168 137 120 110
17.068970 22.896393 7.527683 119 106 94
23.896545 22.896393 5.895685 129 124 109
30.724152 22.896393 4.471241 129 127 108
37.551727 22.896393 4.070330 110 96 85
44.379303 22.896393 4.155014 100 86 76
51.206909 22.896393 3.684986 110 92 83
58.034485 22.896393 2.400833 119 105 95
64.862061 22.896393 0.506865 131 122 115
71.689667 22.896393 -1.937330 105 94 93
78.517242 22.896393 -5.152458 203 222 229
85.344818 22.896393 -9.971215 187 212 217
-85.344818 17.353531 -9.222887 204 223 235
-78.517242 17.353531 -4.665836 182 155 146
-71.689667 17.353531 -1.544010 122 99 85
-64.862061 17.353531 0.846590 153 129 110
-58.034485 17.353531 2.682575 190 156 127
-51.206909 17.353531 3.822882 149 121 103
-44.379303 17.353531 3.952175 120 102 89
-37.551727 17.353531 3.410360 133 123 103
-30.724152 17.353531 3.626612 124 106 90
-23.896545 17.353531 5.337973 131 118 97
-17.068970 17.353531 7.407642 115 85 74
-10.241394 17.353531 8.667364 110 85 72
-3.413788 17.353531 9.119825 138 107 94
3.413788 17.353531 9.119825 159 120 102
10.241394 17.353531 8.667364 120 100 90
17.068970 17.353531 7.407642 114 95 88
23.896545 17.353531 5.337973 117 109 95
30.724152 17.353531 3.626612 117 110 95
37.551727 17.353531 3.410360 79 62 55
44.379303 17.353531 3.952175 83 69 61
51.206909 17.353531 3.822882 76 62 54
58.034485 17.353531 2.682575 106 88 76
64.862061 17.353531 0.846590 131 121 114
71.689667 17.353531 -1.544010 115 102 98
78.517242 17.353531 -4.665836 201 225 232
85.344818 17.353531 -9.222887 183 210 217
-85.344818 11.810684 -8.791561 206 226 235
-78.517242 11.810684 -4.374798 193 169 155
-71.689667 11.810684 -1.306065 142 112 100
-64.862061 11.810684 1.058409 150 123 105
-58.034485 11.810684 2.901628 202 163 132
-51.206909 11.810684 4.150757 217 176 153
-44.379303 11.810684 4.595501 151 117 103
-37.551727 11.810684 4.492149 120 97 84
-30.724152 11.810684 4.879349 117 94 81
-23.896545 11.810684 6.294697 116 87 76
-17.068970 11.810684 7.923651 133 103 87
-10.241394 11.810684 8.927349 138 111 96
-3.413788 11.810684 9.304964 147 113 93
3.413788 11.810684 9.304964 207 165 143
10.241394 11.810684 8.927349 94 70 55
17.068970 11.810684 7.923651 100 83 66
23.896545 11.810684 6.294697 91 70 57
30.724152 11.810684 4.879349 89 69 60
37.551727 11.810684 4.492149 90 72 66
44.379303 11.810684 4.595501 100 82 72
51.206909 11.810684 4.150757 92 75 64
58.034485 11.810684 2.901628 118 98 86
64.862061 11.810684 1.058409 137 124 115
71.689667 11.810684 -1.306065 117 100 92
78.517242 11.810684 -4.374798 199 227 234
85.344818 11.810684 -8.791561 187 213 219
-85.344818 6.267822 -8.634767 207 225 234
-78.517242 6.267822 -4.267198 185 164 153
-71.689667 6.267822 -1.217358 138 109 93
-64.862061 6.267822 1.141708 173 139 116
-58.034485 6.267822 3.020208 180 143 119
-51.206909 6.267822 4.461660 225 184 159
-44.379303 6.267822 5.428398 225 186 160
-37.551727 6.267822 6.042982 192 151 130
-30.724152 6.267822 6.713779 177 138 121
-23.896545 6.267822 7.659252 203 160 141
-17.068970 6.267822 8.594572 202 160 140
-10.241394 6.267822 9.220127 132 105 85
-3.413788 6.267822 9.511717 212 171 148
3.413788 6.267822 9.511717 225 179 151
10.241394 6.267822 9.220127 116 88 69
17.068970 6.267822 8.594572 125 100 83
23.896545 6.267822 7.659252 126 96 78
30.724152 6.267822 6.713779 96 71 61
37.551727 6.267822 6.042982 95 70 63
44.379303 6.267822 5.428398 97 73 59
51.206909 6.267822 4.461660 112 90 75
58.034485 6.267822 3.020208 128 105 91
64.862061 6.267822 1.141708 132 118 107
71.689667 6.267822 -1.217358 105 88 80
78.517242 6.267822 -4.267198 202 225 235
85.344818 6.267822 -8.634767 191 214 218
-85.344818 0.724960 -8.739010 207 226 235
-78.517242 0.724960 -4.338817 188 175 172
-71.689667 0.724960 -1.275951 160 132 111
-64.862061 0.724960 1.092863 190 154 127
-58.034485 0.724960 2.996393 175 137 116
-51.206909 0.724960 4.536413 210 163 144
-44.379303 0.724960 5.759678 222 182 157
-37.551727 0.724960 6.724802 212 171 147
-30.724152 0.724960 7.538157 205 163 141
-23.896545 0.724960 8.278675 198 155 132
-17.068970 0.724960 8.959120 200 158 135
-10.241394 0.724960 9.572477 134 98 78
-3.413788 0.724960 9.993771 229 185 163
3.413788 0.724960 9.993771 226 177 154
10.241394 0.724960 9.572477 156 118 97
17.068970 0.724960 8.959120 136 100 81
23.896545 0.724960 8.278675 160 113 97
30.724152 0.724960 7.538157 166 123 106
37.551727 0.724960 6.724802 160 120 104
44.379303 0.724960 5.759678 144 110 93
51.206909 0.724960 4.536413 150 117 103
58.034485 0.724960 2.996393 133 107 94
64.862061 0.724960 1.092863 129 112 100
71.689667 0.724960 -1.275951 106 91 82
78.517242 0.724960 -4.338817 197 226 236
85.344818 0.724960 -8.739010 186 209 213
-85.344818 -4.817886 -9.113159 205 227 233
-78.517242 -4.817886 -4.592458 204 203 200
-71.689667 -4.817886 -1.483328 157 129 106
-64.862061 -4.817886 0.911631 195 159 132
-58.034485 -4.817886 2.836031 177 137 117
-51.206909 -4.817886 4.408237 190 146 127
-44.379303 -4.817886 5.695251 196 150 130
-37.551727 -4.817886 6.743441 191 148 128
-30.724152 -4.817886 7.601564 182 137 116
-23.896545 -4.817886 8.362064 157 111 93
-17.068970 -4.817886 9.225531 175 138 122
-10.241394 -4.817886 10.343185 212 166 143
-3.413788 -4.817886 11.301897 242 210 188
3.413788 -4.817886 11.301897 229 178 157
10.241394 -4.817886 10.343185 191 145 117
17.068970 -4.817886 9.225531 132 97 78
23.896545 -4.817886 8.362064 136 93 76
30.724152 -4.817886 7.601564 164 123 105
37.551727 -4.817886 6.743441 172 125 109
44.379303 -4.817886 5.695251 170 126 111
51.206909 -4.817886 4.408237 156 124 109
58.034485 -4.817886 2.836031 141 113 99
64.862061 -4.817886 0.911631 134 116 105
71.689667 -4.817886 -1.483328 114 102 101
78.517242 -4.817886 -4.592458 198 226 235
85.344818 -4.817886 -9.113159 182 210 213
-85.344818 -10.360764 -9.792689 206 225 232
-78.517242 -10.360764 -5.038544 208 209 209
-71.689667 -10.360764 -1.844982 149 120 102
-64.862061 -10.360764 0.595898 179 142 118
-58.034485 -10.360764 2.549931 173 133 113
-51.206909 -10.360764 4.144478 152 109 92
-44.379303 -10.360764 5.452042 165 122 106
-37.551727 -10.360764 6.520861 171 134 115
-30.724152 -10.360764 7.409399 155 120 100
-23.896545 -10.360764 8.296307 140 94 73
-17.068970 -10.360764 9.639391 225 183 159
-10.241394 -10.360764 11.788935 220 172 145
-3.413788 -10.360764 13.787397 233 186 161
3.413788 -10.360764 13.787397 220 168 138
10.241394 -10.360764 11.788935 197 147 119
17.068970 -10.360764 9.639391 168 124 103
23.896545 -10.360764 8.296307 133 97 82
30.724152 -10.360764 7.409399 142 103 86
37.551727 -10.360764 6.520861 156 113 97
44.379303 -10.360764 5.452042 156 117 100
51.206909 -10.360764 4.144478 153 117 103
58.034485 -10.360764 2.549931 133 107 93
64.862061 -10.360764 0.595898 112 95 84
71.689667 -10.360764 -1.844982 187 201 199
78.517242 -10.360764 -5.038544 193 222 229
85.344818 -10.360764 -9.792689 182 205 205
-85.344818 -15.903610 -10.860658 205 226 234
-78.517242 -15.903610 -5.697468 205 209 209
-71.689667 -15.903610 -2.371367 126 106 88
-64.862061 -15.903610 0.139273 158 123 101
-58.034485 -15.903610 2.137009 153 116 93
-51.206909 -15.903610 3.761530 132 96 73
-44.379303 -15.903610 5.090944 134 95 77
-37.551727 -15.903610 6.177980 122 84 65
-30.724152 -15.903610 7.100428 113 72 53
-23.896545 -15.903610 8.140038 131 85 64
-17.068970 -15.903610 10.043390 212 162 136
-10.241394 -15.903610 13.382633 209 156 124
-3.413788 -15.903610 16.575788 209 154 125
3.413788 -15.903610 16.575788 204 148 122
10.241394 -15.903610 13.382633 182 135 109
17.068970 -15.903610 10.043390 176 130 106
23.896545 -15.903610 8.140038 169 127 106
30.724152 -15.903610 7.100428 111 71 53
37.551727 -15.903610 6.177980 136 99 82
44.379303 -15.903610 5.090944 141 107 92
51.206909 -15.903610 3.761530 144 114 100
58.034485 -15.903610 2.137009 110 86 74
64.862061 -15.903610 0.139273 95 85 75
71.689667 -15.903610 -2.371367 155 149 151
78.517242 -15.903610 -5.697468 197 224 229
85.344818 -15.903610 -10.860658 190 205 206
-85.344818 -21.446457 -12.528292 205 223 233
-78.517242 -21.446457 -6.605107 204 223 230
-71.689667 -21.446457 -3.079544 126 105 88
-64.862061 -21.446457 -0.468992 140 106 79
-58.034485 -21.446457 1.589886 131 95 68
-51.206909 -21.446457 3.255657 120 85 63
-44.379303 -21.446457 4.614477 119 83 64
-37.551727 -21.446457 5.723919 103 68 50
-30.724152 -21.446457 6.672373 101 72 53
-23.896545 -21.446457 7.790092 114 78 62
-17.068970 -21.446457 9.957169 109 73 56
-10.241394 -21.446457 13.848200 120 86 65
-3.413788 -21.446457 17.593630 161 117 93
3.413788 -21.446457 17.593630 160 116 93
10.241394 -21.446457 13.848200 133 91 71
17.068970 -21.446457 9.957169 124 87 69
23.896545 -21.446457 7.790092 119 89 72
30.724152 -21.446457 6.672373 103 68 46
37.551727 -21.446457 5.723919 103 71 51
44.379303 -21.446457 4.614477 108 75 59
51.206909 -21.446457 3.255657 106 75 62
58.034485 -21.446457 1.589886 88 65 53
64.862061 -21.446457 -0.468992 90 83 71
71.689667 -21.446457 -3.079544 176 183 183
78.517242 -21.446457 -6.605107 194 219 222
85.344818 -21.446457 -12.528292 196 201 201
-85.344818 -26.989334 -15.788109 204 223 232
-78.517242 -26.989334 -7.825832 201 221 229
-71.689667 -26.989334 -3.996465 134 125 120
-64.862061 -26.989334 -1.245102 133 104 79
-58.034485 -26.989334 0.897131 127 92 67
-51.206909 -26.989334 2.618101 120 85 65
-44.379303 -26.989334 4.015690 95 62 45
-37.551727 -26.989334 5.152382 70 42 29
-30.724152 -26.989334 6.111351 73 46 33
-23.896545 -26.989334 7.177551 90 63 48
-17.068970 -26.989334 9.099546 55 35 21
-10.241394 -26.989334 12.450686 49 25 20
-3.413788 -26.989334 15.649652 102 66 49
3.413788 -26.989334 15.649652 116 79 56
10.241394 -26.989334 12.450686 101 65 47
17.068970 -26.989334 9.099546 61 34 20
23.896545 -26.989334 7.177551 76 50 31
30.724152 -26.989334 6.111351 98 66 50
37.551727 -26.989334 5.152382 100 67 49
44.379303 -26.989334 4.015690 101 71 54
51.206909 -26.989334 2.618101 103 73 59
58.034485 -26.989334 0.897131 89 67 55
64.862061 -26.989334 -1.245102 90 86 77
71.689667 -26.989334 -3.996465 191 210 211
78.517242 -26.989334 -7.825832 196 220 222
85.344818 -26.989334 -15.788109 205 197 195
-85.344818 -32.532181 -18.314539 200 220 230
-78.517242 -32.532181 -9.488608 200 220 228
-71.689667 -32.532181 -5.165725 134 135 133
-64.862061 -32.532181 -2.213306 119 90 66
-58.034485 -32.532181 0.042265 111 78 55
-51.206909 -32.532181 1.836384 123 89 67
-44.379303 -32.532181 3.284571 74 45 30
-37.551727 -32.532181 4.455950 60 34 23
-30.724152 -32.532181 5.420404 69 39 28
-23.896545 -32.532181 6.363756 90 66 50
-17.068970 -32.532181 7.748585 98 74 58
-10.241394 -32.532181 9.927092 63 31 25
-3.413788 -32.532181 11.940840 61 24 16
3.413788 -32.532181 11.940840 61 25 13
10.241394 -32.532181 9.927092 67 35 25
17.068970 -32.532181 7.748585 58 34 25
23.896545 -32.532181 6.363756 57 33 20
30.724152 -32.532181 5.420404 59 36 25
37.551727 -32.532181 4.455950 72 45 30
44.379303 -32.532181 3.284571 89 59 39
51.206909 -32.532181 1.836384 87 62 43
58.034485 -32.532181 0.042265 83 56 43
64.862061 -32.532181 -2.213306 85 88 83
71.689667 -32.532181 -5.165725 193 209 214
78.517242 -32.532181 -9.488608 195 212 217
85.344818 -32.532181 -18.314539 223 175 165
-78.517242 -38.075027 -11.929948 197 220 228
-71.689667 -38.075027 -6.663051 187 203 203
-64.862061 -38.075027 -3.411003 111 84 63
-58.034485 -38.075027 -0.998692 114 82 63
-51.206909 -38.075027 0.893143 132 100 77
-44.379303 -38.075027 2.408653 78 49 31
-37.551727 -38.075027 3.630703 79 49 38
-30.724152 -38.075027 4.626976 65 36 27
-23.896545 -38.075027 5.508446 101 75 61
-17.068970 -38.075027 6.494253 111 81 64
-10.241394 -38.075027 7.730371 93 65 44
-3.413788 -38.075027 8.766834 100 65 50
3.413788 -38.075027 8.766834 87 50 33
10.241394 -38.075027 7.730371 85 52 37
17.068970 -38.075027 6.494253 63 41 28
23.896545 -38.075027 5.508446 61 41 28
30.724152 -38.075027 4.626976 61 45 30
37.551727 -38.075027 3.630703 63 39 26
44.379303 -38.075027 2.408653 84 57 41
51.206909 -38.075027 0.893143 78 52 37
58.034485 -38.075027 -0.998692 78 52 39
64.862061 -38.075027 -3.411003 147 157 159
71.689667 -38.075027 -6.663051 193 211 215
78.517242 -38.075027 -11.929948 190 210 214
-78.517242 -43.617905 -18.314539 197 220 226
-71.689667 -43.617905 -8.639599 193 219 221
-64.862061 -43.617905 -4.899563 89 64 48
-58.034485 -43.617905 -2.261898 97 73 51
-51.206909 -43.617905 -0.236147 126 93 71
-44.379303 -43.617905 1.373775 113 82 59
-37.551727 -43.617905 2.685328 98 69 47
-30.724152 -43.617905 3.805939 92 63 47
-23.896545 -43.617905 4.861790 69 41 26
-17.068970 -43.617905 5.970739 133 107 83
-10.241394 -43.617905 7.100883 159 131 109
-3.413788 -43.617905 7.897118 162 139 114
3.413788 -43.617905 7.897118 151 121 102
10.241394 -43.617905 7.100883 148 114 95
17.068970 -43.617905 5.970739 115 84 65
23.896545 -43.617905 4.861790 54 31 18
30.724152 -43.617905 3.805939 66 42 28
37.551727 -43.617905 2.685328 68 44 29
44.379303 -43.617905 1.373775 89 65 48
51.206909 -43.617905 -0.236147 78 50 31
58.034485 -43.617905 -2.261898 82 61 49
64.862061 -43.617905 -4.899563 176 204 208
71.689667 -43.617905 -8.639599 186 210 212
78.517242 -43.617905 -18.314539 186 203 208
-78.517242 -49.160751 -18.314539 197 219 225
-71.689667 -49.160751 -11.500399 195 218 224
-64.862061 -49.160751 -6.791387 91 85 73
-58.034485 -49.160751 -3.806035 97 77 54
-51.206909 -49.160751 -1.591644 110 82 61
-44.379303 -49.160751 0.144527 121 91 70
-37.551727 -49.160751 1.573694 101 69 45
-30.724152 -49.160751 2.868147 98 65 43
-23.896545 -49.160751 4.224407 105 73 55
-17.068970 -49.160751 5.758257 91 58 41
-10.241394 -49.160751 7.298641 100 64 46
-3.413788 -49.160751 8.326014 135 106 83
3.413788 -49.160751 8.326014 132 103 81
10.241394 -49.160751 7.298641 91 54 38
17.068970 -49.160751 5.758257 77 43 22
23.896545 -49.160751 4.224407 82 49 31
30.724152 -49.160751 2.868147 85 56 37
37.551727 -49.160751 1.573694 88 57 44
44.379303 -49.160751 0.144527 88 62 40
51.206909 -49.160751 -1.591644 77 52 37
58.034485 -49.160751 -3.806035 89 93 91
64.862061 -49.160751 -6.791387 191 214 219
71.689667 -49.160751 -11.500399 189 209 212
78.517242 -49.160751 -18.314539 194 201 199
-71.689667 -54.703598 -18.314539 173 179 176
-64.862061 -54.703598 -9.338349 161 145 130
-58.034485 -54.703598 -5.736087 87 66 47
-51.206909 -54.703598 -3.242057 103 75 56
-44.379303 -54.703598 -1.352453 120 89 70
-37.551727 -54.703598 0.151987 107 75 51
-30.724152 -54.703598 1.442991 107 75 51
-23.896545 -54.703598 2.692280 125 90 64
-17.068970 -54.703598 3.998055 133 96 73
-10.241394 -54.703598 5.236050 162 118 105
-3.413788 -54.703598 6.033611 110 64 51
3.413788 -54.703598 6.033611 101 54 44
10.241394 -54.703598 5.236050 94 51 36
17.068970 -54.703598 3.998055 82 45 25
23.896545 -54.703598 2.692280 91 58 39
30.724152 -54.703598 1.442991 89 58 36
37.551727 -54.703598 0.151987 82 50 30
44.379303 -54.703598 -1.352453 80 51 34
51.206909 -54.703598 -3.242057 72 51 35
58.034485 -54.703598 -5.736087 161 176 179
64.862061 -54.703598 -9.338349 194 215 220
71.689667 -54.703598 -18.314539 187 209 214
-64.862061 -60.246475 -13.482601 189 121 100
-58.034485 -60.246475 -8.272161 93 64 47
-51.206909 -60.246475 -5.298985 82 59 41
-44.379303 -60.246475 -3.188377 89 63 39
-37.551727 -60.246475 -1.610691 114 84 62
-30.724152 -60.246475 -0.407452 124 89 64
-23.896545 -60.246475 0.532022 126 90 64
-17.068970 -60.246475 1.282961 117 82 57
-10.241394 -60.246475 1.853769 121 80 64
-3.413788 -60.246475 2.177557 115 76 65
3.413788 -60.246475 2.177557 104 63 48
10.241394 -60.246475 1.853769 85 45 26
17.068970 -60.246475 1.282961 91 56 33
23.896545 -60.246475 0.532022 96 64 42
30.724152 -60.246475 -0.407452 93 61 40
37.551727 -60.246475 -1.610691 85 52 35
44.379303 -60.246475 -3.188377 80 53 34
51.206909 -60.246475 -5.298985 69 46 34
58.034485 -60.246475 -8.272161 189 209 208
64.862061 -60.246475 -13.482601 189 212 217
-64.862061 -65.789322 -18.314539 190 113 94
-58.034485 -65.789322 -12.107213 162 126 98
-51.206909 -65.789322 -7.991410 60 41 24
-44.379303 -65.789322 -5.479269 58 41 18
-37.551727 -65.789322 -3.742013 107 80 56
-30.724152 -65.789322 -2.535499 135 99 76
-23.896545 -65.789322 -1.733660 141 103 81
-17.068970 -65.789322 -1.239918 108 74 53
-10.241394 -65.789322 -0.968410 85 57 39
-3.413788 -65.789322 -0.851309 70 40 19
3.413788 -65.789322 -0.851309 72 42 25
10.241394 -65.789322 -0.968410 73 41 21
17.068970 -65.789322 -1.239918 90 58 34
23.896545 -65.789322 -1.733660 93 61 39
30.724152 -65.789322 -2.535499 87 52 32
37.551727 -65.789322 -3.742013 67 40 23
44.379303 -65.789322 -5.479269 67 42 29
51.206909 -65.789322 -7.991410 78 65 52
58.034485 -65.789322 -12.107213 82 80 72
64.862061 -65.789322 -18.314539 131 140 138
-58.034485 -71.332169 -18.314539 172 134 101
-51.206909 -71.332169 -12.045755 96 71 49
-44.379303 -71.332169 -8.494139 46 36 14
-37.551727 -71.332169 -6.395529 67 53 28
-30.724152 -71.332169 -5.072095 136 101 76
-23.896545 -71.332169 -4.290778 157 115 93
-17.068970 -71.332169 -3.895249 147 105 83
-10.241394 -71.332169 -3.741180 103 69 50
-3.413788 -71.332169 -3.702318 68 39 22
3.413788 -71.332169 -3.702318 68 39 22
10.241394 -71.332169 -3.741180 88 55 36
17.068970 -71.332169 -3.895249 92 57 35
23.896545 -71.332169 -4.290778 93 60 39
30.724152 -71.332169 -5.072095 68 41 26
37.551727 -71.332169 -6.395529 51 31 17
44.379303 -71.332169 -8.494139 46 28 16
51.206909 -71.332169 -12.045755 75 60 48
58.034485 -71.332169 -18.314539 63 56 42
-51.206909 -76.875046 -18.314539 124 89 64
-44.379303 -76.875046 -13.244288 42 34 15
-37.551727 -76.875046 -9.910287 46 35 15
-30.724152 -76.875046 -8.168986 119 88 67
-23.896545 -76.875046 -7.231868 165 120 99
-17.068970 -76.875046 -6.803594 182 134 113
-10.241394 -76.875046 -6.668516 153 113 91
-3.413788 -76.875046 -6.652378 126 89 72
3.413788 -76.875046 -6.652378 92 55 36
10.241394 -76.875046 -6.668516 95 60 41
17.068970 -76.875046 -6.803594 92 56 38
23.896545 -76.875046 -7.231868 80 45 26
30.724152 -76.875046 -8.168986 44 22 12
37.551727 -76.875046 -9.910287 42 26 15
44.379303 -76.875046 -13.244288 54 31 16
51.206909 -76.875046 -18.314539 64 43 29
-44.379303 -82.417892 -18.314539 74 56 31
-37.551727 -82.417892 -17.034214 41 29 13
-30.724152 -82.417892 -12.471359 52 38 21
-23.896545 -82.417892 -10.809781 133 100 79
-17.068970 -82.417892 -10.033355 149 107 85
-10.241394 -82.417892 -9.716744 132 93 76
-3.413788 -82.417892 -9.620812 106 69 51
3.413788 -82.417892 -9.620812 98 68 50
10.241394 -82.417892 -9.716744 84 52 39
17.068970 -82.417892 -10.033355 68 39 25
23.896545 -82.417892 -10.809781 54 32 19
30.724152 -82.417892 -12.471359 44 22 12
37.551727 -82.417892 -17.034214 72 44 30
44.379303 -82.417892 -18.314539 71 41 25
-37.551727 -87.960739 -18.314539 59 42 24
-30.724152 -87.960739 -18.314539 39 30 16
-23.896545 -87.960739 -18.314539 80 54 39
-17.068970 -87.960739 -14.936628 96 65 49
-10.241394 -87.960739 -13.807425 86 52 37
-3.413788 -87.960739 -13.393410 78 50 37
3.413788 -87.960739 -13.393410 57 33 19
10.241394 -87.960739 -13.807425 71 43 30
17.068970 -87.960739 -14.936628 66 43 28
23.896545 -87.960739 -18.314539 41 22 14
30.724152 -87.960739 -18.314539 33 15 7
37.551727 -87.960739 -18.314539 93 62 40
-23.896545 -93.503616 -18.314539 39 24 15
-17.068970 -93.503616 -18.314539 43 26 15
-10.241394 -93.503616 -18.314539 51 33 19
-3.413788 -93.503616 -18.314539 48 29 16
3.413788 -93.503616 -18.314539 46 28 13
10.241394 -93.503616 -18.314539 47 28 15
17.068970 -93.503616 -18.314539 36 23 11
23.896545 -93.503616 -18.314539 35 18 9
3 16 6 0
3 646 604 580
3 664 683 665
3 171 195 245
3 83 103 125
3 82 83 63
3 29 15 28
3 5 15 29
3 6 7 0
3 17 6 16
3 556 506 580
3 556 532 506
3 532 507 506
3 626 604 646
3 604 626 605
3 604 581 580
3 603 625 665
3 602 625 603
3 531 579 603
3 579 531 555
3 45 62 63
3 83 45 63
3 15 27 28
3 126 104 148
3 196 172 220
3 172 148 220
3 7 8 0
3 715 714 726
3 714 701 700
3 683 699 665
3 625 645 665
3 624 645 625
3 13 14 5
3 14 15 5
3 149 126 148
3 105 84 104
3 104 84 64
3 221 196 220
3 219 244 245
3 195 219 245
3 103 124 125
3 147 171 125
3 44 45 29
3 531 530 555
3 65 46 64
3 17 18 6
3 684 714 700
3 716 715 726
3 725 713 712
3 713 725 699
3 724 723 733
3 725 724 733
3 147 170 171
3 46 30 64
3 30 46 47
3 30 31 16
3 684 666 646
3 666 684 667
3 685 684 700
3 666 647 646
3 698 713 699
3 682 699 683
3 88 108 109
3 108 88 87
3 556 581 557
3 581 556 580
3 139 118 117
3 118 139 140
3 118 96 117
3 96 118 97
3 81 82 63
3 62 81 63
3 43 27 42
3 27 43 28
3 414 415 389
3 388 414 389
3 389 416 390
3 415 416 389
3 1 10 2
3 10 1 9
3 2 10 3
3 10 11 3
3 8 1 0
3 1 8 9
3 19 35 20
3 35 19 34
3 8 19 20
3 19 8 7
3 152 130 129
3 130 152 153
3 130 153 154
3 131 130 154
3 108 130 109
3 130 131 109
3 130 107 129
3 107 130 108
3 308 282 307
3 307 282 281
3 52 35 34
3 51 52 34
3 21 10 9
3 10 21 22
3 8 21 9
3 21 8 20
3 39 23 38
3 23 39 24
3 10 23 11
3 23 10 22
3 533 556 557
3 556 533 532
3 582 581 604
3 582 604 605
3 721 722 709
3 708 721 709
3 316 341 342
3 341 316 315
3 368 341 367
3 341 368 342
3 314 341 315
3 341 314 340
3 340 314 339
3 314 313 339
3 341 366 367
3 366 341 340
3 366 340 339
3 365 366 339
3 100 99 121
3 121 99 120
3 118 119 97
3 119 98 97
3 119 118 140
3 141 119 140
3 99 119 120
3 119 99 98
3 39 40 24
3 24 40 25
3 99 78 98
3 78 99 79
3 579 578 603
3 578 602 603
3 578 579 555
3 554 578 555
3 82 102 83
3 102 103 83
3 81 102 82
3 102 81 101
3 12 23 24
3 23 12 11
3 12 24 25
3 13 12 25
3 149 172 173
3 172 149 148
3 149 127 126
3 127 149 150
3 126 127 104
3 127 105 104
3 490 515 516
3 515 490 489
3 414 441 415
3 440 441 414
3 413 440 414
3 440 413 439
3 488 515 489
3 515 488 514
3 463 488 489
3 462 488 463
3 88 67 87
3 68 67 88
3 65 84 85
3 84 65 64
3 67 47 66
3 47 67 48
3 49 68 69
3 50 49 69
3 49 67 68
3 67 49 48
3 31 32 17
3 31 17 16
3 49 31 48
3 31 49 32
3 33 51 34
3 51 33 50
3 33 49 50
3 49 33 32
3 132 131 154
3 155 132 154
3 70 50 69
3 70 51 50
3 70 52 51
3 52 70 71
3 89 68 88
3 68 89 69
3 89 70 69
3 70 89 90
3 84 106 85
3 106 84 105
3 67 86 87
3 86 67 66
3 86 108 87
3 86 107 108
3 86 65 85
3 65 86 66
3 106 86 85
3 86 106 107
3 364 365 339
3 338 364 339
3 282 257 256
3 257 282 283
3 284 257 283
3 257 284 258
3 208 185 184
3 185 208 209
3 208 232 233
3 232 208 207
3 232 258 259
3 233 232 259
3 208 234 209
3 234 208 233
3 234 233 259
3 260 234 259
3 135 113 134
3 113 112 134
3 257 231 256
3 231 230 256
3 231 257 258
3 232 231 258
3 113 93 92
3 93 113 114
3 35 36 20
3 36 21 20
3 507 480 506
3 481 480 507
3 455 428 454
3 428 455 429
3 480 455 454
3 455 480 481
3 509 508 534
3 508 533 534
3 533 508 532
3 508 507 532
3 558 533 557
3 533 558 534
3 581 558 557
3 582 558 581
3 488 513 514
3 513 488 487
3 702 701 714
3 715 702 714
3 723 732 733
3 732 723 722
3 721 732 722
3 732 721 731
3 244 271 245
3 271 244 270
3 297 271 296
3 271 270 296
3 400 373 399
3 373 400 374
3 217 218 193
3 193 218 194
3 218 242 243
3 242 218 217
3 218 195 194
3 218 219 195
3 244 218 243
3 219 218 244
3 102 124 103
3 124 102 123
3 147 124 146
3 124 147 125
3 216 242 217
3 242 216 241
3 213 188 212
3 188 213 189
3 162 185 186
3 185 162 161
3 216 240 241
3 240 216 215
3 240 265 266
3 265 240 239
3 267 242 241
3 242 267 268
3 240 267 241
3 267 240 266
3 314 287 313
3 287 314 288
3 287 312 313
3 312 287 286
3 313 312 339
3 312 338 339
3 289 314 315
3 314 289 288
3 162 138 161
3 138 162 139
3 138 139 117
3 116 138 117
3 167 145 144
3 145 167 168
3 169 145 168
3 145 169 146
3 145 124 123
3 124 145 146
3 122 100 121
3 100 122 101
3 122 102 101
3 102 122 123
3 145 122 144
3 122 145 123
3 98 77 97
3 78 77 98
3 77 96 97
3 96 77 76
3 59 41 58
3 41 59 42
3 59 77 78
3 77 59 58
3 80 99 100
3 99 80 79
3 81 80 101
3 80 100 101
3 80 81 62
3 61 80 62
3 43 44 28
3 44 29 28
3 44 61 62
3 45 44 62
3 421 396 395
3 396 421 422
3 478 477 504
3 504 477 503
3 477 450 476
3 450 477 451
3 502 529 503
3 529 502 528
3 477 502 503
3 502 477 476
3 397 396 422
3 423 397 422
3 397 370 396
3 370 397 371
3 265 292 266
3 292 265 291
3 345 370 371
3 370 345 344
3 530 554 555
3 530 529 554
3 530 504 503
3 529 530 503
3 530 531 505
3 504 530 505
3 11 4 3
3 12 4 11
3 4 12 13
3 4 13 5
3 306 307 281
3 280 306 281
3 306 331 332
3 331 306 305
3 279 306 280
3 306 279 305
3 304 331 305
3 331 304 330
3 279 304 305
3 304 279 278
3 304 277 303
3 277 304 278
3 722 710 709
3 723 710 722
3 518 542 543
3 542 518 517
3 516 542 517
3 541 542 516
3 490 464 489
3 464 463 489
3 387 414 388
3 387 413 414
3 461 488 462
3 488 461 487
3 436 461 462
3 461 436 435
3 376 377 350
3 350 377 351
3 272 298 299
3 273 272 299
3 537 511 536
3 511 537 512
3 513 537 538
3 537 513 512
3 558 535 534
3 535 558 559
3 327 354 328
3 354 327 353
3 304 329 330
3 329 304 303
3 302 329 303
3 329 302 328
3 455 430 429
3 430 455 456
3 457 430 456
3 430 457 431
3 47 46 66
3 46 65 66
3 32 18 17
3 33 18 32
3 18 19 7
3 18 7 6
3 19 18 34
3 18 33 34
3 133 132 155
3 156 133 155
3 112 133 134
3 133 112 111
3 205 229 230
3 229 205 204
3 205 180 204
3 205 181 180
3 157 133 156
3 133 157 134
3 181 157 180
3 157 156 180
3 131 110 109
3 132 110 131
3 110 88 109
3 110 89 88
3 133 110 132
3 110 133 111
3 89 110 90
3 90 110 111
3 113 91 112
3 91 113 92
3 70 91 71
3 91 70 90
3 112 91 111
3 91 90 111
3 128 152 129
3 128 151 152
3 107 128 129
3 106 128 107
3 128 127 150
3 151 128 150
3 127 128 105
3 128 106 105
3 363 388 389
3 388 363 362
3 363 389 390
3 364 363 390
3 285 260 259
3 260 285 286
3 284 285 258
3 258 285 259
3 306 333 307
3 333 306 332
3 282 255 281
3 255 282 256
3 230 255 256
3 229 255 230
3 23 37 38
3 37 23 22
3 21 37 22
3 36 37 21
3 72 91 92
3 91 72 71
3 93 72 92
3 72 93 73
3 482 455 481
3 455 482 456
3 482 481 507
3 508 482 507
3 560 537 536
3 537 560 561
3 560 535 559
3 535 560 536
3 627 606 626
3 626 606 605
3 537 562 538
3 562 537 561
3 688 702 703
3 702 688 687
3 727 716 726
3 716 727 717
3 703 716 704
3 716 717 704
3 716 702 715
3 702 716 703
3 242 269 243
3 269 242 268
3 244 269 270
3 269 244 243
3 270 269 296
3 269 295 296
3 322 295 321
3 295 322 296
3 322 297 296
3 322 323 297
3 372 345 371
3 345 372 346
3 372 347 346
3 372 373 347
3 170 193 194
3 170 169 193
3 170 147 146
3 169 170 146
3 195 170 194
3 171 170 195
3 192 169 168
3 169 192 193
3 192 217 193
3 192 216 217
3 167 192 168
3 192 167 191
3 216 192 215
3 215 192 191
3 214 240 215
3 240 214 239
3 214 215 191
3 190 214 191
3 214 238 239
3 238 214 213
3 214 190 189
3 213 214 189
3 139 163 140
3 162 163 139
3 163 162 186
3 187 163 186
3 163 141 140
3 141 163 164
3 163 188 164
3 188 163 187
3 316 290 315
3 290 289 315
3 185 160 184
3 160 185 161
3 138 160 161
3 160 138 137
3 183 208 184
3 208 183 207
3 160 183 184
3 183 160 159
3 136 113 135
3 113 136 114
3 136 160 137
3 160 136 159
3 167 166 191
3 166 190 191
3 14 26 15
3 26 27 15
3 27 26 42
3 26 41 42
3 26 13 25
3 26 14 13
3 40 26 25
3 41 26 40
3 60 78 79
3 60 59 78
3 60 43 42
3 59 60 42
3 80 60 79
3 60 80 61
3 60 44 43
3 44 60 61
3 452 477 478
3 477 452 451
3 479 478 504
3 479 504 505
3 479 452 478
3 452 479 453
3 400 401 374
3 401 375 374
3 420 447 421
3 447 420 446
3 420 421 395
3 394 420 395
3 421 448 422
3 447 448 421
3 450 449 476
3 476 449 475
3 449 423 422
3 448 449 422
3 424 449 450
3 449 424 423
3 424 450 451
3 425 424 451
3 317 290 316
3 290 317 291
3 317 316 342
3 343 317 342
3 369 394 395
3 394 369 368
3 368 369 342
3 369 343 342
3 396 369 395
3 370 369 396
3 369 370 344
3 343 369 344
3 553 529 528
3 529 553 554
3 601 624 625
3 601 625 602
3 152 177 153
3 176 177 152
3 153 177 154
3 177 178 154
3 179 156 155
3 156 179 180
3 179 155 154
3 178 179 154
3 226 253 227
3 253 226 252
3 279 253 278
3 278 253 252
3 272 247 246
3 247 272 273
3 246 247 220
3 247 221 220
3 172 197 173
3 197 172 196
3 174 149 173
3 149 174 150
3 391 366 365
3 391 392 366
3 364 391 365
3 391 364 390
3 416 391 390
3 417 391 416
3 393 368 367
3 393 394 368
3 366 393 367
3 392 393 366
3 468 495 469
3 495 468 494
3 391 418 392
3 418 391 417
3 413 438 439
3 438 413 412
3 465 440 439
3 440 465 466
3 438 465 439
3 465 438 464
3 442 416 415
3 441 442 415
3 335 361 336
3 336 361 362
3 361 387 388
3 361 388 362
3 486 513 487
3 513 486 512
3 461 486 487
3 486 461 460
3 434 461 435
3 461 434 460
3 324 350 351
3 325 324 351
3 298 324 299
3 324 325 299
3 326 325 351
3 352 326 351
3 327 326 353
3 326 352 353
3 277 276 303
3 276 302 303
3 276 301 302
3 301 276 275
3 301 327 328
3 302 301 328
3 354 355 328
3 355 329 328
3 382 355 381
3 355 382 356
3 329 355 330
3 330 355 356
3 377 378 351
3 378 352 351
3 352 378 353
3 378 379 353
3 380 355 354
3 355 380 381
3 380 354 353
3 379 380 353
3 483 508 509
3 483 482 508
3 483 457 456
3 482 483 456
3 510 509 534
3 535 510 534
3 510 483 509
3 483 510 484
3 511 510 536
3 510 535 536
3 457 458 431
3 458 432 431
3 483 458 457
3 458 483 484
3 30 47 48
3 31 30 48
3 205 206 181
3 181 206 182
3 231 206 230
3 206 205 230
3 183 206 207
3 206 183 182
3 206 232 207
3 206 231 232
3 158 157 181
3 158 181 182
3 158 135 134
3 157 158 134
3 158 183 159
3 183 158 182
3 158 136 135
3 136 158 159
3 363 337 362
3 337 336 362
3 337 364 338
3 337 363 364
3 309 284 283
3 309 310 284
3 309 335 336
3 310 309 336
3 309 282 308
3 282 309 283
3 210 185 209
3 185 210 186
3 234 210 209
3 235 210 234
3 289 262 288
3 262 289 263
3 254 255 229
3 254 229 228
3 254 280 281
3 255 254 281
3 253 254 227
3 227 254 228
3 254 279 280
3 254 253 279
3 55 39 38
3 55 56 39
3 57 56 75
3 57 75 76
3 57 40 39
3 56 57 39
3 77 57 76
3 57 77 58
3 41 57 58
3 57 41 40
3 96 95 117
3 95 116 117
3 95 96 76
3 75 95 76
3 136 115 114
3 115 136 137
3 115 93 114
3 115 94 93
3 115 138 116
3 138 115 137
3 95 115 116
3 115 95 94
3 52 53 35
3 53 36 35
3 53 52 71
3 72 53 71
3 583 558 582
3 558 583 559
3 583 582 605
3 606 583 605
3 583 560 559
3 560 583 584
3 685 668 667
3 684 685 667
3 653 634 633
3 634 653 654
3 513 539 514
3 539 513 538
3 609 587 586
3 587 609 610
3 689 688 703
3 689 703 704
3 689 671 688
3 671 689 672
3 731 720 730
3 721 720 731
3 720 729 730
3 729 720 719
3 705 689 704
3 689 705 690
3 673 655 654
3 655 673 674
3 653 673 654
3 673 653 672
3 689 673 672
3 673 689 690
3 348 373 374
3 373 348 347
3 348 322 321
3 348 321 347
3 349 348 375
3 375 348 374
3 323 348 349
3 322 348 323
3 290 264 289
3 289 264 263
3 264 265 239
3 238 264 239
3 265 264 291
3 264 290 291
3 142 119 141
3 119 142 120
3 401 426 427
3 426 401 400
3 427 426 453
3 426 452 453
3 426 400 399
3 425 426 399
3 452 426 451
3 426 425 451
3 472 447 446
3 447 472 473
3 397 398 371
3 398 372 371
3 398 397 423
3 424 398 423
3 373 398 399
3 372 398 373
3 398 424 425
3 398 425 399
3 318 317 343
3 318 343 344
3 318 292 291
3 317 318 291
3 345 318 344
3 319 318 345
3 269 294 295
3 294 269 268
3 501 502 476
3 501 476 475
3 645 644 665
3 644 664 665
3 502 527 528
3 501 527 502
3 577 578 554
3 553 577 554
3 578 577 602
3 577 601 602
3 577 600 601
3 600 577 576
3 203 229 204
3 229 203 228
3 180 203 204
3 179 203 180
3 203 227 228
3 227 203 202
3 203 179 178
3 203 178 202
3 357 331 330
3 357 330 356
3 382 357 356
3 383 357 382
3 436 409 435
3 409 436 410
3 384 409 410
3 409 384 383
3 409 434 435
3 434 409 408
3 409 383 382
3 409 382 408
3 248 247 273
3 274 248 273
3 248 274 275
3 249 248 275
3 197 198 173
3 198 174 173
3 151 175 152
3 175 176 152
3 175 151 150
3 174 175 150
3 276 250 275
3 250 249 275
3 201 226 227
3 201 227 202
3 177 201 178
3 178 201 202
3 710 694 709
3 695 694 710
3 694 708 709
3 694 693 708
3 694 677 676
3 693 694 676
3 711 724 725
3 711 725 712
3 711 710 723
3 724 711 723
3 673 691 674
3 691 673 690
3 705 691 690
3 691 705 706
3 675 655 674
3 655 675 656
3 691 675 674
3 675 691 692
3 657 675 676
3 675 657 656
3 675 693 676
3 675 692 693
3 519 518 543
3 544 519 543
3 467 441 440
3 467 440 466
3 467 442 441
3 442 467 468
3 570 547 546
3 547 570 571
3 547 521 546
3 521 547 522
3 496 521 522
3 521 496 495
3 437 462 463
3 437 436 462
3 464 437 463
3 438 437 464
3 491 490 516
3 491 516 517
3 491 464 490
3 491 465 464
3 518 491 517
3 492 491 518
3 465 491 466
3 491 492 466
3 443 417 416
3 442 443 416
3 443 468 469
3 443 442 468
3 443 418 417
3 443 444 418
3 309 334 335
3 334 309 308
3 334 308 307
3 333 334 307
3 387 386 413
3 413 386 412
3 300 301 275
3 274 300 275
3 300 326 327
3 301 300 327
3 300 273 299
3 300 274 273
3 325 300 299
3 326 300 325
3 404 430 431
3 405 404 431
3 378 404 379
3 379 404 405
3 432 406 431
3 406 405 431
3 406 380 379
3 406 379 405
3 434 459 460
3 459 434 433
3 458 459 432
3 432 459 433
3 311 285 284
3 310 311 284
3 337 311 336
3 311 310 336
3 311 312 286
3 285 311 286
3 312 311 338
3 311 337 338
3 188 211 212
3 211 188 187
3 211 187 186
3 210 211 186
3 261 287 288
3 262 261 288
3 287 261 286
3 261 260 286
3 261 234 260
3 261 235 234
3 37 54 38
3 54 55 38
3 54 72 73
3 54 53 72
3 54 37 36
3 53 54 36
3 93 74 73
3 94 74 93
3 54 74 55
3 74 54 73
3 74 95 75
3 95 74 94
3 55 74 56
3 56 74 75
3 647 648 628
3 627 647 628
3 648 647 667
3 647 666 667
3 647 627 626
3 647 626 646
3 566 542 541
3 566 541 565
3 589 566 565
3 566 589 590
3 542 566 543
3 566 567 543
3 589 613 590
3 613 589 612
3 634 613 633
3 613 612 633
3 612 632 633
3 632 612 611
3 632 611 610
3 631 632 610
3 688 670 687
3 671 670 688
3 668 649 667
3 649 648 667
3 648 649 628
3 649 629 628
3 702 686 701
3 686 702 687
3 670 686 687
3 686 670 669
3 701 686 700
3 686 685 700
3 685 686 668
3 686 669 668
3 657 636 656
3 636 657 637
3 562 563 538
3 563 539 538
3 587 563 586
3 563 562 586
3 609 630 610
3 630 631 610
3 608 630 609
3 630 608 629
3 693 707 708
3 692 707 693
3 707 721 708
3 707 720 721
3 707 691 706
3 691 707 692
3 720 707 719
3 719 707 706
3 718 727 728
3 727 718 717
3 717 718 704
3 718 705 704
3 729 718 728
3 718 729 719
3 705 718 706
3 718 719 706
3 698 682 681
3 682 698 699
3 143 121 120
3 142 143 120
3 143 122 121
3 122 143 144
3 143 167 144
3 143 166 167
3 165 188 189
3 188 165 164
3 165 141 164
3 165 142 141
3 190 165 189
3 166 165 190
3 165 143 142
3 143 165 166
3 267 293 268
3 293 294 268
3 293 267 266
3 292 293 266
3 318 293 292
3 293 318 319
3 347 320 346
3 321 320 347
3 295 320 321
3 294 320 295
3 320 345 346
3 320 319 345
3 293 320 294
3 320 293 319
3 449 474 475
3 474 449 448
3 474 448 447
3 474 447 473
3 523 496 522
3 496 523 497
3 523 498 497
3 498 523 524
3 552 577 553
3 577 552 576
3 552 553 528
3 527 552 528
3 623 644 645
3 623 645 624
3 601 623 624
3 600 623 601
3 599 623 600
3 623 599 622
3 599 600 576
3 575 599 576
3 599 575 574
3 598 599 574
3 331 358 332
3 357 358 331
3 358 357 383
3 384 358 383
3 358 333 332
3 333 358 359
3 358 385 359
3 358 384 385
3 222 197 196
3 221 222 196
3 247 222 221
3 248 222 247
3 222 198 197
3 198 222 223
3 222 248 249
3 222 249 223
3 200 177 176
3 200 201 177
3 201 200 226
3 200 225 226
3 250 224 249
3 249 224 223
3 251 276 277
3 251 250 276
3 251 224 250
3 224 251 225
3 251 277 278
3 251 278 252
3 226 251 252
3 225 251 226
3 678 694 695
3 694 678 677
3 677 658 676
3 658 657 676
3 678 658 677
3 658 678 659
3 519 493 518
3 493 492 518
3 493 467 466
3 492 493 466
3 468 493 494
3 467 493 468
3 613 591 590
3 591 613 614
3 591 566 590
3 566 591 567
3 568 544 543
3 567 568 543
3 657 638 637
3 658 638 657
3 520 493 519
3 493 520 494
3 520 495 494
3 520 521 495
3 495 470 469
3 496 470 495
3 470 443 469
3 443 470 444
3 419 420 394
3 393 419 394
3 419 393 392
3 418 419 392
3 386 411 412
3 411 386 385
3 411 438 412
3 411 437 438
3 411 384 410
3 384 411 385
3 436 411 410
3 437 411 436
3 360 334 333
3 360 333 359
3 385 360 359
3 386 360 385
3 360 361 335
3 334 360 335
3 361 360 387
3 360 386 387
3 430 403 429
3 404 403 430
3 403 378 377
3 403 404 378
3 403 428 429
3 428 403 402
3 403 376 402
3 403 377 376
3 407 406 432
3 407 432 433
3 380 407 381
3 406 407 380
3 407 434 408
3 434 407 433
3 407 382 381
3 382 407 408
3 510 485 484
3 485 510 511
3 485 458 484
3 485 459 458
3 485 511 512
3 486 485 512
3 485 486 460
3 459 485 460
3 236 261 262
3 261 236 235
3 236 210 235
3 236 211 210
3 652 671 672
3 653 652 672
3 652 653 633
3 632 652 633
3 652 670 671
3 670 652 651
3 652 632 631
3 652 631 651
3 635 655 656
3 636 635 656
3 635 613 634
3 613 635 614
3 635 634 654
3 655 635 654
3 515 540 516
3 540 541 516
3 541 540 565
3 540 564 565
3 540 515 514
3 539 540 514
3 563 540 539
3 540 563 564
3 588 587 610
3 611 588 610
3 588 563 587
3 563 588 564
3 589 588 612
3 612 588 611
3 588 589 565
3 564 588 565
3 650 649 668
3 669 650 668
3 649 650 629
3 650 630 629
3 670 650 669
3 650 670 651
3 630 650 631
3 631 650 651
3 560 585 561
3 585 560 584
3 585 562 561
3 562 585 586
3 585 609 586
3 585 608 609
3 629 607 628
3 608 607 629
3 607 585 584
3 585 607 608
3 607 606 627
3 607 627 628
3 607 583 606
3 583 607 584
3 623 643 644
3 643 623 622
3 500 527 501
3 527 500 526
3 500 501 475
3 474 500 475
3 642 621 641
3 621 620 641
3 621 643 622
3 643 621 642
3 599 621 622
3 621 599 598
3 525 549 550
3 549 525 524
3 550 549 574
3 549 573 574
3 621 597 620
3 597 621 598
3 597 598 574
3 573 597 574
3 551 552 527
3 551 527 526
3 552 551 576
3 551 575 576
3 551 525 550
3 525 551 526
3 575 551 574
3 551 550 574
3 175 199 176
3 199 200 176
3 200 199 225
3 199 224 225
3 198 199 174
3 199 175 174
3 199 198 223
3 224 199 223
3 696 695 710
3 711 696 710
3 696 678 695
3 696 679 678
3 591 592 567
3 592 568 567
3 568 592 569
3 592 593 569
3 593 594 569
3 594 570 569
3 570 594 571
3 594 595 571
3 639 658 659
3 639 638 658
3 678 660 659
3 679 660 678
3 660 639 659
3 639 660 640
3 597 619 620
3 619 597 596
3 620 619 641
3 619 640 641
3 595 619 596
3 619 595 618
3 619 639 640
3 639 619 618
3 568 545 544
3 545 568 569
3 545 519 544
3 545 520 519
3 545 570 546
3 570 545 569
3 521 545 546
3 520 545 521
3 420 445 446
3 419 445 420
3 444 445 418
3 445 419 418
3 211 237 212
3 236 237 211
3 237 262 263
3 237 236 262
3 237 213 212
3 237 238 213
3 264 237 263
3 237 264 238
3 682 663 681
3 663 662 681
3 663 643 642
3 662 663 642
3 663 683 664
3 663 682 683
3 644 663 664
3 643 663 644
3 499 474 473
3 499 500 474
3 500 499 526
3 499 525 526
3 472 499 473
3 498 499 472
3 499 498 524
3 525 499 524
3 547 548 522
3 548 523 522
3 523 548 524
3 548 549 524
3 615 635 636
3 635 615 614
3 615 591 614
3 615 592 591
3 615 636 637
3 616 615 637
3 592 615 593
3 593 615 616
3 638 617 637
3 617 616 637
3 617 594 593
3 617 593 616
3 639 617 638
3 617 639 618
3 594 617 595
3 595 617 618
3 498 471 497
3 471 498 472
3 471 472 446
3 445 471 446
3 471 496 497
3 471 470 496
3 470 471 444
3 471 445 444
3 595 572 571
3 572 595 596
3 572 547 571
3 572 548 547
3 572 597 573
3 597 572 596
3 549 572 573
3 548 572 549
3 698 697 713
3 713 697 712
3 697 698 681
3 680 697 681
3 697 711 712
3 697 696 711
3 696 697 679
3 697 680 679
3 661 642 641
3 661 662 642
3 662 661 681
3 661 680 681
3 660 661 640
3 640 661 641
3 661 660 679
3 680 661 679
